%TF.GenerationSoftware,KiCad,Pcbnew,5.1.6-c6e7f7d~87~ubuntu19.10.1*%
%TF.CreationDate,2020-08-28T21:10:44+02:00*%
%TF.ProjectId,zephyr-ci-shield,7a657068-7972-42d6-9369-2d736869656c,1*%
%TF.SameCoordinates,Original*%
%TF.FileFunction,Soldermask,Top*%
%TF.FilePolarity,Negative*%
%FSLAX46Y46*%
G04 Gerber Fmt 4.6, Leading zero omitted, Abs format (unit mm)*
G04 Created by KiCad (PCBNEW 5.1.6-c6e7f7d~87~ubuntu19.10.1) date 2020-08-28 21:10:44*
%MOMM*%
%LPD*%
G01*
G04 APERTURE LIST*
%ADD10C,3.300000*%
%ADD11R,2.000000X1.400000*%
%ADD12R,2.900000X1.100000*%
%ADD13R,0.900000X1.100000*%
%ADD14R,1.300000X1.100000*%
%ADD15R,1.300000X0.800000*%
%ADD16O,1.800000X1.800000*%
%ADD17R,1.800000X1.800000*%
%ADD18C,1.100000*%
%ADD19R,1.100000X1.800000*%
G04 APERTURE END LIST*
D10*
%TO.C,H3*%
X165940000Y-88260000D03*
%TD*%
%TO.C,H2*%
X165940000Y-116200000D03*
%TD*%
%TO.C,H1*%
X113870000Y-121280000D03*
%TD*%
%TO.C,H4*%
X115140000Y-73020000D03*
%TD*%
D11*
%TO.C,J1*%
X166255000Y-93045000D03*
D12*
X165805000Y-106545000D03*
D13*
X161655000Y-106545000D03*
D14*
X155455000Y-106545000D03*
X151155000Y-95395000D03*
D15*
X151155000Y-103545000D03*
X151155000Y-102445000D03*
X151155000Y-101345000D03*
X151155000Y-100245000D03*
X151155000Y-99145000D03*
X151155000Y-98045000D03*
X151155000Y-96945000D03*
X151155000Y-104645000D03*
X151155000Y-105595000D03*
%TD*%
D16*
%TO.C,J4*%
X118700000Y-73030000D03*
X121240000Y-73030000D03*
X123780000Y-73030000D03*
X126320000Y-73030000D03*
X128860000Y-73030000D03*
X131400000Y-73030000D03*
X133940000Y-73030000D03*
X136480000Y-73030000D03*
X139020000Y-73030000D03*
D17*
X141560000Y-73030000D03*
%TD*%
D16*
%TO.C,J3*%
X163400000Y-121280000D03*
X160860000Y-121280000D03*
X158320000Y-121280000D03*
X155780000Y-121280000D03*
X153240000Y-121280000D03*
D17*
X150700000Y-121280000D03*
%TD*%
D16*
%TO.C,J2*%
X145620000Y-121270000D03*
X143080000Y-121270000D03*
X140540000Y-121270000D03*
X138000000Y-121270000D03*
X135460000Y-121270000D03*
X132920000Y-121270000D03*
X130380000Y-121270000D03*
D17*
X127840000Y-121270000D03*
%TD*%
D16*
%TO.C,J5*%
X145620000Y-73010000D03*
X148160000Y-73010000D03*
X150700000Y-73010000D03*
X153240000Y-73010000D03*
X155780000Y-73010000D03*
X158320000Y-73010000D03*
X160860000Y-73010000D03*
D17*
X163400000Y-73010000D03*
%TD*%
D18*
%TO.C,TP1*%
X148050000Y-111480000D03*
%TD*%
%TO.C,U2*%
G36*
G01*
X120280000Y-95310000D02*
X119930000Y-95310000D01*
G75*
G02*
X119755000Y-95135000I0J175000D01*
G01*
X119755000Y-93435000D01*
G75*
G02*
X119930000Y-93260000I175000J0D01*
G01*
X120280000Y-93260000D01*
G75*
G02*
X120455000Y-93435000I0J-175000D01*
G01*
X120455000Y-95135000D01*
G75*
G02*
X120280000Y-95310000I-175000J0D01*
G01*
G37*
G36*
G01*
X121550000Y-95310000D02*
X121200000Y-95310000D01*
G75*
G02*
X121025000Y-95135000I0J175000D01*
G01*
X121025000Y-93435000D01*
G75*
G02*
X121200000Y-93260000I175000J0D01*
G01*
X121550000Y-93260000D01*
G75*
G02*
X121725000Y-93435000I0J-175000D01*
G01*
X121725000Y-95135000D01*
G75*
G02*
X121550000Y-95310000I-175000J0D01*
G01*
G37*
G36*
G01*
X122820000Y-95310000D02*
X122470000Y-95310000D01*
G75*
G02*
X122295000Y-95135000I0J175000D01*
G01*
X122295000Y-93435000D01*
G75*
G02*
X122470000Y-93260000I175000J0D01*
G01*
X122820000Y-93260000D01*
G75*
G02*
X122995000Y-93435000I0J-175000D01*
G01*
X122995000Y-95135000D01*
G75*
G02*
X122820000Y-95310000I-175000J0D01*
G01*
G37*
G36*
G01*
X124090000Y-95310000D02*
X123740000Y-95310000D01*
G75*
G02*
X123565000Y-95135000I0J175000D01*
G01*
X123565000Y-93435000D01*
G75*
G02*
X123740000Y-93260000I175000J0D01*
G01*
X124090000Y-93260000D01*
G75*
G02*
X124265000Y-93435000I0J-175000D01*
G01*
X124265000Y-95135000D01*
G75*
G02*
X124090000Y-95310000I-175000J0D01*
G01*
G37*
G36*
G01*
X124090000Y-100260000D02*
X123740000Y-100260000D01*
G75*
G02*
X123565000Y-100085000I0J175000D01*
G01*
X123565000Y-98385000D01*
G75*
G02*
X123740000Y-98210000I175000J0D01*
G01*
X124090000Y-98210000D01*
G75*
G02*
X124265000Y-98385000I0J-175000D01*
G01*
X124265000Y-100085000D01*
G75*
G02*
X124090000Y-100260000I-175000J0D01*
G01*
G37*
G36*
G01*
X122820000Y-100260000D02*
X122470000Y-100260000D01*
G75*
G02*
X122295000Y-100085000I0J175000D01*
G01*
X122295000Y-98385000D01*
G75*
G02*
X122470000Y-98210000I175000J0D01*
G01*
X122820000Y-98210000D01*
G75*
G02*
X122995000Y-98385000I0J-175000D01*
G01*
X122995000Y-100085000D01*
G75*
G02*
X122820000Y-100260000I-175000J0D01*
G01*
G37*
G36*
G01*
X121550000Y-100260000D02*
X121200000Y-100260000D01*
G75*
G02*
X121025000Y-100085000I0J175000D01*
G01*
X121025000Y-98385000D01*
G75*
G02*
X121200000Y-98210000I175000J0D01*
G01*
X121550000Y-98210000D01*
G75*
G02*
X121725000Y-98385000I0J-175000D01*
G01*
X121725000Y-100085000D01*
G75*
G02*
X121550000Y-100260000I-175000J0D01*
G01*
G37*
G36*
G01*
X120280000Y-100260000D02*
X119930000Y-100260000D01*
G75*
G02*
X119755000Y-100085000I0J175000D01*
G01*
X119755000Y-98385000D01*
G75*
G02*
X119930000Y-98210000I175000J0D01*
G01*
X120280000Y-98210000D01*
G75*
G02*
X120455000Y-98385000I0J-175000D01*
G01*
X120455000Y-100085000D01*
G75*
G02*
X120280000Y-100260000I-175000J0D01*
G01*
G37*
%TD*%
%TO.C,U1*%
G36*
G01*
X120270000Y-106290000D02*
X119920000Y-106290000D01*
G75*
G02*
X119745000Y-106115000I0J175000D01*
G01*
X119745000Y-104415000D01*
G75*
G02*
X119920000Y-104240000I175000J0D01*
G01*
X120270000Y-104240000D01*
G75*
G02*
X120445000Y-104415000I0J-175000D01*
G01*
X120445000Y-106115000D01*
G75*
G02*
X120270000Y-106290000I-175000J0D01*
G01*
G37*
G36*
G01*
X121540000Y-106290000D02*
X121190000Y-106290000D01*
G75*
G02*
X121015000Y-106115000I0J175000D01*
G01*
X121015000Y-104415000D01*
G75*
G02*
X121190000Y-104240000I175000J0D01*
G01*
X121540000Y-104240000D01*
G75*
G02*
X121715000Y-104415000I0J-175000D01*
G01*
X121715000Y-106115000D01*
G75*
G02*
X121540000Y-106290000I-175000J0D01*
G01*
G37*
G36*
G01*
X122810000Y-106290000D02*
X122460000Y-106290000D01*
G75*
G02*
X122285000Y-106115000I0J175000D01*
G01*
X122285000Y-104415000D01*
G75*
G02*
X122460000Y-104240000I175000J0D01*
G01*
X122810000Y-104240000D01*
G75*
G02*
X122985000Y-104415000I0J-175000D01*
G01*
X122985000Y-106115000D01*
G75*
G02*
X122810000Y-106290000I-175000J0D01*
G01*
G37*
G36*
G01*
X124080000Y-106290000D02*
X123730000Y-106290000D01*
G75*
G02*
X123555000Y-106115000I0J175000D01*
G01*
X123555000Y-104415000D01*
G75*
G02*
X123730000Y-104240000I175000J0D01*
G01*
X124080000Y-104240000D01*
G75*
G02*
X124255000Y-104415000I0J-175000D01*
G01*
X124255000Y-106115000D01*
G75*
G02*
X124080000Y-106290000I-175000J0D01*
G01*
G37*
G36*
G01*
X124080000Y-111240000D02*
X123730000Y-111240000D01*
G75*
G02*
X123555000Y-111065000I0J175000D01*
G01*
X123555000Y-109365000D01*
G75*
G02*
X123730000Y-109190000I175000J0D01*
G01*
X124080000Y-109190000D01*
G75*
G02*
X124255000Y-109365000I0J-175000D01*
G01*
X124255000Y-111065000D01*
G75*
G02*
X124080000Y-111240000I-175000J0D01*
G01*
G37*
G36*
G01*
X122810000Y-111240000D02*
X122460000Y-111240000D01*
G75*
G02*
X122285000Y-111065000I0J175000D01*
G01*
X122285000Y-109365000D01*
G75*
G02*
X122460000Y-109190000I175000J0D01*
G01*
X122810000Y-109190000D01*
G75*
G02*
X122985000Y-109365000I0J-175000D01*
G01*
X122985000Y-111065000D01*
G75*
G02*
X122810000Y-111240000I-175000J0D01*
G01*
G37*
G36*
G01*
X121540000Y-111240000D02*
X121190000Y-111240000D01*
G75*
G02*
X121015000Y-111065000I0J175000D01*
G01*
X121015000Y-109365000D01*
G75*
G02*
X121190000Y-109190000I175000J0D01*
G01*
X121540000Y-109190000D01*
G75*
G02*
X121715000Y-109365000I0J-175000D01*
G01*
X121715000Y-111065000D01*
G75*
G02*
X121540000Y-111240000I-175000J0D01*
G01*
G37*
G36*
G01*
X120270000Y-111240000D02*
X119920000Y-111240000D01*
G75*
G02*
X119745000Y-111065000I0J175000D01*
G01*
X119745000Y-109365000D01*
G75*
G02*
X119920000Y-109190000I175000J0D01*
G01*
X120270000Y-109190000D01*
G75*
G02*
X120445000Y-109365000I0J-175000D01*
G01*
X120445000Y-111065000D01*
G75*
G02*
X120270000Y-111240000I-175000J0D01*
G01*
G37*
%TD*%
%TO.C,TP6*%
X121250000Y-80410000D03*
%TD*%
%TO.C,TP4*%
X118700000Y-80420000D03*
%TD*%
%TO.C,TP2*%
X128860000Y-80410000D03*
%TD*%
%TO.C,TP3*%
X131410000Y-80410000D03*
%TD*%
%TO.C,TP5*%
X133920000Y-80410000D03*
%TD*%
%TO.C,TP7*%
X136460000Y-80410000D03*
%TD*%
D19*
%TO.C,SW1*%
X120430000Y-121940000D03*
X120430000Y-115640000D03*
X124230000Y-121940000D03*
X124230000Y-115640000D03*
%TD*%
%TO.C,R12*%
G36*
G01*
X121870000Y-84041738D02*
X121870000Y-84998262D01*
G75*
G02*
X121598262Y-85270000I-271738J0D01*
G01*
X120891738Y-85270000D01*
G75*
G02*
X120620000Y-84998262I0J271738D01*
G01*
X120620000Y-84041738D01*
G75*
G02*
X120891738Y-83770000I271738J0D01*
G01*
X121598262Y-83770000D01*
G75*
G02*
X121870000Y-84041738I0J-271738D01*
G01*
G37*
G36*
G01*
X123920000Y-84041738D02*
X123920000Y-84998262D01*
G75*
G02*
X123648262Y-85270000I-271738J0D01*
G01*
X122941738Y-85270000D01*
G75*
G02*
X122670000Y-84998262I0J271738D01*
G01*
X122670000Y-84041738D01*
G75*
G02*
X122941738Y-83770000I271738J0D01*
G01*
X123648262Y-83770000D01*
G75*
G02*
X123920000Y-84041738I0J-271738D01*
G01*
G37*
%TD*%
%TO.C,R6*%
G36*
G01*
X162951738Y-112914000D02*
X163908262Y-112914000D01*
G75*
G02*
X164180000Y-113185738I0J-271738D01*
G01*
X164180000Y-113892262D01*
G75*
G02*
X163908262Y-114164000I-271738J0D01*
G01*
X162951738Y-114164000D01*
G75*
G02*
X162680000Y-113892262I0J271738D01*
G01*
X162680000Y-113185738D01*
G75*
G02*
X162951738Y-112914000I271738J0D01*
G01*
G37*
G36*
G01*
X162951738Y-110864000D02*
X163908262Y-110864000D01*
G75*
G02*
X164180000Y-111135738I0J-271738D01*
G01*
X164180000Y-111842262D01*
G75*
G02*
X163908262Y-112114000I-271738J0D01*
G01*
X162951738Y-112114000D01*
G75*
G02*
X162680000Y-111842262I0J271738D01*
G01*
X162680000Y-111135738D01*
G75*
G02*
X162951738Y-110864000I271738J0D01*
G01*
G37*
%TD*%
%TO.C,R5*%
G36*
G01*
X160409738Y-112908000D02*
X161366262Y-112908000D01*
G75*
G02*
X161638000Y-113179738I0J-271738D01*
G01*
X161638000Y-113886262D01*
G75*
G02*
X161366262Y-114158000I-271738J0D01*
G01*
X160409738Y-114158000D01*
G75*
G02*
X160138000Y-113886262I0J271738D01*
G01*
X160138000Y-113179738D01*
G75*
G02*
X160409738Y-112908000I271738J0D01*
G01*
G37*
G36*
G01*
X160409738Y-110858000D02*
X161366262Y-110858000D01*
G75*
G02*
X161638000Y-111129738I0J-271738D01*
G01*
X161638000Y-111836262D01*
G75*
G02*
X161366262Y-112108000I-271738J0D01*
G01*
X160409738Y-112108000D01*
G75*
G02*
X160138000Y-111836262I0J271738D01*
G01*
X160138000Y-111129738D01*
G75*
G02*
X160409738Y-110858000I271738J0D01*
G01*
G37*
%TD*%
%TO.C,R4*%
G36*
G01*
X157867738Y-112890000D02*
X158824262Y-112890000D01*
G75*
G02*
X159096000Y-113161738I0J-271738D01*
G01*
X159096000Y-113868262D01*
G75*
G02*
X158824262Y-114140000I-271738J0D01*
G01*
X157867738Y-114140000D01*
G75*
G02*
X157596000Y-113868262I0J271738D01*
G01*
X157596000Y-113161738D01*
G75*
G02*
X157867738Y-112890000I271738J0D01*
G01*
G37*
G36*
G01*
X157867738Y-110840000D02*
X158824262Y-110840000D01*
G75*
G02*
X159096000Y-111111738I0J-271738D01*
G01*
X159096000Y-111818262D01*
G75*
G02*
X158824262Y-112090000I-271738J0D01*
G01*
X157867738Y-112090000D01*
G75*
G02*
X157596000Y-111818262I0J271738D01*
G01*
X157596000Y-111111738D01*
G75*
G02*
X157867738Y-110840000I271738J0D01*
G01*
G37*
%TD*%
%TO.C,R3*%
G36*
G01*
X155325738Y-112896000D02*
X156282262Y-112896000D01*
G75*
G02*
X156554000Y-113167738I0J-271738D01*
G01*
X156554000Y-113874262D01*
G75*
G02*
X156282262Y-114146000I-271738J0D01*
G01*
X155325738Y-114146000D01*
G75*
G02*
X155054000Y-113874262I0J271738D01*
G01*
X155054000Y-113167738D01*
G75*
G02*
X155325738Y-112896000I271738J0D01*
G01*
G37*
G36*
G01*
X155325738Y-110846000D02*
X156282262Y-110846000D01*
G75*
G02*
X156554000Y-111117738I0J-271738D01*
G01*
X156554000Y-111824262D01*
G75*
G02*
X156282262Y-112096000I-271738J0D01*
G01*
X155325738Y-112096000D01*
G75*
G02*
X155054000Y-111824262I0J271738D01*
G01*
X155054000Y-111117738D01*
G75*
G02*
X155325738Y-110846000I271738J0D01*
G01*
G37*
%TD*%
%TO.C,R2*%
G36*
G01*
X152783738Y-112902000D02*
X153740262Y-112902000D01*
G75*
G02*
X154012000Y-113173738I0J-271738D01*
G01*
X154012000Y-113880262D01*
G75*
G02*
X153740262Y-114152000I-271738J0D01*
G01*
X152783738Y-114152000D01*
G75*
G02*
X152512000Y-113880262I0J271738D01*
G01*
X152512000Y-113173738D01*
G75*
G02*
X152783738Y-112902000I271738J0D01*
G01*
G37*
G36*
G01*
X152783738Y-110852000D02*
X153740262Y-110852000D01*
G75*
G02*
X154012000Y-111123738I0J-271738D01*
G01*
X154012000Y-111830262D01*
G75*
G02*
X153740262Y-112102000I-271738J0D01*
G01*
X152783738Y-112102000D01*
G75*
G02*
X152512000Y-111830262I0J271738D01*
G01*
X152512000Y-111123738D01*
G75*
G02*
X152783738Y-110852000I271738J0D01*
G01*
G37*
%TD*%
%TO.C,R1*%
G36*
G01*
X150241738Y-112920000D02*
X151198262Y-112920000D01*
G75*
G02*
X151470000Y-113191738I0J-271738D01*
G01*
X151470000Y-113898262D01*
G75*
G02*
X151198262Y-114170000I-271738J0D01*
G01*
X150241738Y-114170000D01*
G75*
G02*
X149970000Y-113898262I0J271738D01*
G01*
X149970000Y-113191738D01*
G75*
G02*
X150241738Y-112920000I271738J0D01*
G01*
G37*
G36*
G01*
X150241738Y-110870000D02*
X151198262Y-110870000D01*
G75*
G02*
X151470000Y-111141738I0J-271738D01*
G01*
X151470000Y-111848262D01*
G75*
G02*
X151198262Y-112120000I-271738J0D01*
G01*
X150241738Y-112120000D01*
G75*
G02*
X149970000Y-111848262I0J271738D01*
G01*
X149970000Y-111141738D01*
G75*
G02*
X150241738Y-110870000I271738J0D01*
G01*
G37*
%TD*%
%TO.C,R11*%
G36*
G01*
X118080000Y-85038262D02*
X118080000Y-84081738D01*
G75*
G02*
X118351738Y-83810000I271738J0D01*
G01*
X119058262Y-83810000D01*
G75*
G02*
X119330000Y-84081738I0J-271738D01*
G01*
X119330000Y-85038262D01*
G75*
G02*
X119058262Y-85310000I-271738J0D01*
G01*
X118351738Y-85310000D01*
G75*
G02*
X118080000Y-85038262I0J271738D01*
G01*
G37*
G36*
G01*
X116030000Y-85038262D02*
X116030000Y-84081738D01*
G75*
G02*
X116301738Y-83810000I271738J0D01*
G01*
X117008262Y-83810000D01*
G75*
G02*
X117280000Y-84081738I0J-271738D01*
G01*
X117280000Y-85038262D01*
G75*
G02*
X117008262Y-85310000I-271738J0D01*
G01*
X116301738Y-85310000D01*
G75*
G02*
X116030000Y-85038262I0J271738D01*
G01*
G37*
%TD*%
%TO.C,R7*%
G36*
G01*
X139890000Y-79931738D02*
X139890000Y-80888262D01*
G75*
G02*
X139618262Y-81160000I-271738J0D01*
G01*
X138911738Y-81160000D01*
G75*
G02*
X138640000Y-80888262I0J271738D01*
G01*
X138640000Y-79931738D01*
G75*
G02*
X138911738Y-79660000I271738J0D01*
G01*
X139618262Y-79660000D01*
G75*
G02*
X139890000Y-79931738I0J-271738D01*
G01*
G37*
G36*
G01*
X141940000Y-79931738D02*
X141940000Y-80888262D01*
G75*
G02*
X141668262Y-81160000I-271738J0D01*
G01*
X140961738Y-81160000D01*
G75*
G02*
X140690000Y-80888262I0J271738D01*
G01*
X140690000Y-79931738D01*
G75*
G02*
X140961738Y-79660000I271738J0D01*
G01*
X141668262Y-79660000D01*
G75*
G02*
X141940000Y-79931738I0J-271738D01*
G01*
G37*
%TD*%
%TO.C,R8*%
G36*
G01*
X146350000Y-79911738D02*
X146350000Y-80868262D01*
G75*
G02*
X146078262Y-81140000I-271738J0D01*
G01*
X145371738Y-81140000D01*
G75*
G02*
X145100000Y-80868262I0J271738D01*
G01*
X145100000Y-79911738D01*
G75*
G02*
X145371738Y-79640000I271738J0D01*
G01*
X146078262Y-79640000D01*
G75*
G02*
X146350000Y-79911738I0J-271738D01*
G01*
G37*
G36*
G01*
X148400000Y-79911738D02*
X148400000Y-80868262D01*
G75*
G02*
X148128262Y-81140000I-271738J0D01*
G01*
X147421738Y-81140000D01*
G75*
G02*
X147150000Y-80868262I0J271738D01*
G01*
X147150000Y-79911738D01*
G75*
G02*
X147421738Y-79640000I271738J0D01*
G01*
X148128262Y-79640000D01*
G75*
G02*
X148400000Y-79911738I0J-271738D01*
G01*
G37*
%TD*%
%TO.C,R9*%
G36*
G01*
X151525000Y-79911738D02*
X151525000Y-80868262D01*
G75*
G02*
X151253262Y-81140000I-271738J0D01*
G01*
X150546738Y-81140000D01*
G75*
G02*
X150275000Y-80868262I0J271738D01*
G01*
X150275000Y-79911738D01*
G75*
G02*
X150546738Y-79640000I271738J0D01*
G01*
X151253262Y-79640000D01*
G75*
G02*
X151525000Y-79911738I0J-271738D01*
G01*
G37*
G36*
G01*
X153575000Y-79911738D02*
X153575000Y-80868262D01*
G75*
G02*
X153303262Y-81140000I-271738J0D01*
G01*
X152596738Y-81140000D01*
G75*
G02*
X152325000Y-80868262I0J271738D01*
G01*
X152325000Y-79911738D01*
G75*
G02*
X152596738Y-79640000I271738J0D01*
G01*
X153303262Y-79640000D01*
G75*
G02*
X153575000Y-79911738I0J-271738D01*
G01*
G37*
%TD*%
%TO.C,R10*%
G36*
G01*
X156700000Y-79911738D02*
X156700000Y-80868262D01*
G75*
G02*
X156428262Y-81140000I-271738J0D01*
G01*
X155721738Y-81140000D01*
G75*
G02*
X155450000Y-80868262I0J271738D01*
G01*
X155450000Y-79911738D01*
G75*
G02*
X155721738Y-79640000I271738J0D01*
G01*
X156428262Y-79640000D01*
G75*
G02*
X156700000Y-79911738I0J-271738D01*
G01*
G37*
G36*
G01*
X158750000Y-79911738D02*
X158750000Y-80868262D01*
G75*
G02*
X158478262Y-81140000I-271738J0D01*
G01*
X157771738Y-81140000D01*
G75*
G02*
X157500000Y-80868262I0J271738D01*
G01*
X157500000Y-79911738D01*
G75*
G02*
X157771738Y-79640000I271738J0D01*
G01*
X158478262Y-79640000D01*
G75*
G02*
X158750000Y-79911738I0J-271738D01*
G01*
G37*
%TD*%
%TO.C,C1*%
G36*
G01*
X148251738Y-106120000D02*
X149208262Y-106120000D01*
G75*
G02*
X149480000Y-106391738I0J-271738D01*
G01*
X149480000Y-107098262D01*
G75*
G02*
X149208262Y-107370000I-271738J0D01*
G01*
X148251738Y-107370000D01*
G75*
G02*
X147980000Y-107098262I0J271738D01*
G01*
X147980000Y-106391738D01*
G75*
G02*
X148251738Y-106120000I271738J0D01*
G01*
G37*
G36*
G01*
X148251738Y-104070000D02*
X149208262Y-104070000D01*
G75*
G02*
X149480000Y-104341738I0J-271738D01*
G01*
X149480000Y-105048262D01*
G75*
G02*
X149208262Y-105320000I-271738J0D01*
G01*
X148251738Y-105320000D01*
G75*
G02*
X147980000Y-105048262I0J271738D01*
G01*
X147980000Y-104341738D01*
G75*
G02*
X148251738Y-104070000I271738J0D01*
G01*
G37*
%TD*%
%TO.C,C2*%
G36*
G01*
X120765000Y-102421738D02*
X120765000Y-103378262D01*
G75*
G02*
X120493262Y-103650000I-271738J0D01*
G01*
X119786738Y-103650000D01*
G75*
G02*
X119515000Y-103378262I0J271738D01*
G01*
X119515000Y-102421738D01*
G75*
G02*
X119786738Y-102150000I271738J0D01*
G01*
X120493262Y-102150000D01*
G75*
G02*
X120765000Y-102421738I0J-271738D01*
G01*
G37*
G36*
G01*
X122815000Y-102421738D02*
X122815000Y-103378262D01*
G75*
G02*
X122543262Y-103650000I-271738J0D01*
G01*
X121836738Y-103650000D01*
G75*
G02*
X121565000Y-103378262I0J271738D01*
G01*
X121565000Y-102421738D01*
G75*
G02*
X121836738Y-102150000I271738J0D01*
G01*
X122543262Y-102150000D01*
G75*
G02*
X122815000Y-102421738I0J-271738D01*
G01*
G37*
%TD*%
%TO.C,C3*%
G36*
G01*
X121520000Y-92088262D02*
X121520000Y-91131738D01*
G75*
G02*
X121791738Y-90860000I271738J0D01*
G01*
X122498262Y-90860000D01*
G75*
G02*
X122770000Y-91131738I0J-271738D01*
G01*
X122770000Y-92088262D01*
G75*
G02*
X122498262Y-92360000I-271738J0D01*
G01*
X121791738Y-92360000D01*
G75*
G02*
X121520000Y-92088262I0J271738D01*
G01*
G37*
G36*
G01*
X119470000Y-92088262D02*
X119470000Y-91131738D01*
G75*
G02*
X119741738Y-90860000I271738J0D01*
G01*
X120448262Y-90860000D01*
G75*
G02*
X120720000Y-91131738I0J-271738D01*
G01*
X120720000Y-92088262D01*
G75*
G02*
X120448262Y-92360000I-271738J0D01*
G01*
X119741738Y-92360000D01*
G75*
G02*
X119470000Y-92088262I0J271738D01*
G01*
G37*
%TD*%
M02*
