%TF.GenerationSoftware,KiCad,Pcbnew,5.1.6-c6e7f7d~87~ubuntu19.10.1*%
%TF.CreationDate,2020-08-28T21:10:44+02:00*%
%TF.ProjectId,zephyr-ci-shield,7a657068-7972-42d6-9369-2d736869656c,1*%
%TF.SameCoordinates,Original*%
%TF.FileFunction,Copper,L2,Bot*%
%TF.FilePolarity,Positive*%
%FSLAX46Y46*%
G04 Gerber Fmt 4.6, Leading zero omitted, Abs format (unit mm)*
G04 Created by KiCad (PCBNEW 5.1.6-c6e7f7d~87~ubuntu19.10.1) date 2020-08-28 21:10:44*
%MOMM*%
%LPD*%
G01*
G04 APERTURE LIST*
%TA.AperFunction,ComponentPad*%
%ADD10O,1.700000X1.700000*%
%TD*%
%TA.AperFunction,ComponentPad*%
%ADD11R,1.700000X1.700000*%
%TD*%
%TA.AperFunction,ViaPad*%
%ADD12C,0.800000*%
%TD*%
%TA.AperFunction,Conductor*%
%ADD13C,0.250000*%
%TD*%
%TA.AperFunction,Conductor*%
%ADD14C,0.254000*%
%TD*%
G04 APERTURE END LIST*
D10*
%TO.P,J4,10*%
%TO.N,/SCL*%
X118700000Y-73030000D03*
%TO.P,J4,9*%
%TO.N,/SDA*%
X121240000Y-73030000D03*
%TO.P,J4,8*%
%TO.N,N/C*%
X123780000Y-73030000D03*
%TO.P,J4,7*%
%TO.N,GND*%
X126320000Y-73030000D03*
%TO.P,J4,6*%
%TO.N,/SCK*%
X128860000Y-73030000D03*
%TO.P,J4,5*%
%TO.N,/MISO*%
X131400000Y-73030000D03*
%TO.P,J4,4*%
%TO.N,/MOSI*%
X133940000Y-73030000D03*
%TO.P,J4,3*%
%TO.N,/NCS*%
X136480000Y-73030000D03*
%TO.P,J4,2*%
%TO.N,Net-(J4-Pad2)*%
X139020000Y-73030000D03*
D11*
%TO.P,J4,1*%
%TO.N,Net-(J4-Pad1)*%
X141560000Y-73030000D03*
%TD*%
D10*
%TO.P,J3,6*%
%TO.N,Net-(J3-Pad6)*%
X163400000Y-121280000D03*
%TO.P,J3,5*%
%TO.N,Net-(J3-Pad5)*%
X160860000Y-121280000D03*
%TO.P,J3,4*%
%TO.N,Net-(J3-Pad4)*%
X158320000Y-121280000D03*
%TO.P,J3,3*%
%TO.N,Net-(J3-Pad3)*%
X155780000Y-121280000D03*
%TO.P,J3,2*%
%TO.N,Net-(J3-Pad2)*%
X153240000Y-121280000D03*
D11*
%TO.P,J3,1*%
%TO.N,Net-(J3-Pad1)*%
X150700000Y-121280000D03*
%TD*%
D10*
%TO.P,J2,8*%
%TO.N,N/C*%
X145620000Y-121270000D03*
%TO.P,J2,7*%
%TO.N,GND*%
X143080000Y-121270000D03*
%TO.P,J2,6*%
X140540000Y-121270000D03*
%TO.P,J2,5*%
%TO.N,N/C*%
X138000000Y-121270000D03*
%TO.P,J2,4*%
%TO.N,+3V3*%
X135460000Y-121270000D03*
%TO.P,J2,3*%
%TO.N,Net-(J2-Pad3)*%
X132920000Y-121270000D03*
%TO.P,J2,2*%
%TO.N,N/C*%
X130380000Y-121270000D03*
D11*
%TO.P,J2,1*%
X127840000Y-121270000D03*
%TD*%
D10*
%TO.P,J5,8*%
%TO.N,Net-(J5-Pad8)*%
X145620000Y-73010000D03*
%TO.P,J5,7*%
%TO.N,Net-(J5-Pad7)*%
X148160000Y-73010000D03*
%TO.P,J5,6*%
%TO.N,Net-(J5-Pad6)*%
X150700000Y-73010000D03*
%TO.P,J5,5*%
%TO.N,Net-(J5-Pad5)*%
X153240000Y-73010000D03*
%TO.P,J5,4*%
%TO.N,Net-(J5-Pad4)*%
X155780000Y-73010000D03*
%TO.P,J5,3*%
%TO.N,Net-(J5-Pad3)*%
X158320000Y-73010000D03*
%TO.P,J5,2*%
%TO.N,N/C*%
X160860000Y-73010000D03*
D11*
%TO.P,J5,1*%
X163400000Y-73010000D03*
%TD*%
D12*
%TO.N,GND*%
X123890000Y-102900000D03*
X123900000Y-108330000D03*
X121350000Y-96170000D03*
X122180000Y-89970000D03*
X147140000Y-104690000D03*
X152610000Y-102430000D03*
X101874999Y-72062500D03*
X101874999Y-79062500D03*
X101874999Y-86062500D03*
X101874999Y-93062500D03*
X101874999Y-100062500D03*
X101874999Y-107062500D03*
X101874999Y-114062500D03*
X101874999Y-121062500D03*
X105874999Y-75062500D03*
X105874999Y-82062500D03*
X105874999Y-89062500D03*
X105874999Y-96062500D03*
X105874999Y-103062500D03*
X105874999Y-110062500D03*
X105874999Y-117062500D03*
X107874999Y-122062500D03*
X109874999Y-72062500D03*
X109874999Y-79062500D03*
X109874999Y-86062500D03*
X109874999Y-93062500D03*
X109874999Y-100062500D03*
X109874999Y-107062500D03*
X109874999Y-114062500D03*
X111874999Y-119062500D03*
X113874999Y-76062500D03*
X113874999Y-83062500D03*
X113874999Y-90062500D03*
X113874999Y-97062500D03*
X113874999Y-104062500D03*
X113874999Y-111062500D03*
X115874999Y-116062500D03*
X116874999Y-122062500D03*
X117874999Y-79062500D03*
X117874999Y-86062500D03*
X119874999Y-96062500D03*
X119874999Y-107062500D03*
X120874999Y-118062500D03*
X121874999Y-101062500D03*
X122874999Y-75062500D03*
X122874999Y-82062500D03*
X124874999Y-87062500D03*
X125874999Y-93062500D03*
X125874999Y-115062500D03*
X125874999Y-122062500D03*
X126874999Y-78062500D03*
X127874999Y-98062500D03*
X127874999Y-105062500D03*
X128874999Y-111062500D03*
X129874999Y-82062500D03*
X129874999Y-89062500D03*
X129874999Y-118062500D03*
X131874999Y-94062500D03*
X131874999Y-101062500D03*
X132874999Y-75062500D03*
X132874999Y-107062500D03*
X133874999Y-115062500D03*
X135874999Y-97062500D03*
X136874999Y-103062500D03*
X136874999Y-110062500D03*
X136874999Y-119062500D03*
X137874999Y-77062500D03*
X138874999Y-83062500D03*
X139874999Y-114062500D03*
X140874999Y-99062500D03*
X140874999Y-106062500D03*
X141874999Y-87062500D03*
X142874999Y-75062500D03*
X142874999Y-118062500D03*
X143874999Y-81062500D03*
X143874999Y-110062500D03*
X144874999Y-102062500D03*
X145874999Y-90062500D03*
X146874999Y-114062500D03*
X147874999Y-84062500D03*
X147874999Y-120062500D03*
X148874999Y-94062500D03*
X148874999Y-108062500D03*
X149874999Y-75062500D03*
X150874999Y-88062500D03*
X151874999Y-116062500D03*
X152874999Y-82062500D03*
X152874999Y-97062500D03*
X153874999Y-110062500D03*
X154874999Y-77062500D03*
X154874999Y-91062500D03*
X154874999Y-102062500D03*
X156874999Y-85062500D03*
X156874999Y-118062500D03*
X157874999Y-95062500D03*
X159874999Y-75062500D03*
X159874999Y-89062500D03*
X159874999Y-100062500D03*
X160874999Y-81062500D03*
X160874999Y-110062500D03*
X161874999Y-116062500D03*
X162874999Y-93062500D03*
X162874999Y-104062500D03*
X163874999Y-85062500D03*
X164874999Y-77062500D03*
X164874999Y-98062500D03*
X165874999Y-108062500D03*
X165874999Y-119062500D03*
%TO.N,/MISO*%
X149210000Y-102820000D03*
X149200000Y-100250000D03*
%TD*%
D13*
%TO.N,/MISO*%
X149210000Y-102820000D02*
X149210000Y-100260000D01*
X149210000Y-100260000D02*
X149200000Y-100250000D01*
%TD*%
D14*
%TO.N,GND*%
G36*
X165534001Y-72168171D02*
G01*
X165534000Y-83330059D01*
X165534000Y-83409630D01*
X165532038Y-83429123D01*
X165534000Y-83449494D01*
X165534000Y-83449940D01*
X165535938Y-83469621D01*
X165539705Y-83508729D01*
X165539832Y-83509150D01*
X165539875Y-83509589D01*
X165551396Y-83547571D01*
X165562756Y-83585310D01*
X165562962Y-83585697D01*
X165563090Y-83586120D01*
X165581833Y-83621186D01*
X165600304Y-83655922D01*
X165600581Y-83656261D01*
X165600790Y-83656652D01*
X165625990Y-83687358D01*
X165638228Y-83702336D01*
X165638535Y-83702644D01*
X165651526Y-83718474D01*
X165666681Y-83730911D01*
X167958545Y-86032655D01*
X167958815Y-86032984D01*
X167972216Y-86046385D01*
X167986367Y-86060597D01*
X167986714Y-86060883D01*
X168074001Y-86148170D01*
X168074000Y-118571829D01*
X165667023Y-120978808D01*
X165651526Y-120991526D01*
X165600790Y-121053347D01*
X165563090Y-121123879D01*
X165539875Y-121200410D01*
X165534000Y-121260059D01*
X165534000Y-121260067D01*
X165532037Y-121280000D01*
X165534000Y-121299933D01*
X165534000Y-121309940D01*
X165534001Y-121309950D01*
X165534000Y-123414000D01*
X100306000Y-123414000D01*
X100306000Y-121084889D01*
X111889000Y-121084889D01*
X111889000Y-121475111D01*
X111965129Y-121857836D01*
X112114461Y-122218355D01*
X112331257Y-122542814D01*
X112607186Y-122818743D01*
X112931645Y-123035539D01*
X113292164Y-123184871D01*
X113674889Y-123261000D01*
X114065111Y-123261000D01*
X114447836Y-123184871D01*
X114808355Y-123035539D01*
X115132814Y-122818743D01*
X115408743Y-122542814D01*
X115625539Y-122218355D01*
X115774871Y-121857836D01*
X115851000Y-121475111D01*
X115851000Y-121084889D01*
X115774871Y-120702164D01*
X115657995Y-120420000D01*
X126607157Y-120420000D01*
X126607157Y-122120000D01*
X126614513Y-122194689D01*
X126636299Y-122266508D01*
X126671678Y-122332696D01*
X126719289Y-122390711D01*
X126777304Y-122438322D01*
X126843492Y-122473701D01*
X126915311Y-122495487D01*
X126990000Y-122502843D01*
X128690000Y-122502843D01*
X128764689Y-122495487D01*
X128836508Y-122473701D01*
X128902696Y-122438322D01*
X128960711Y-122390711D01*
X129008322Y-122332696D01*
X129043701Y-122266508D01*
X129065487Y-122194689D01*
X129072843Y-122120000D01*
X129072843Y-121148757D01*
X129149000Y-121148757D01*
X129149000Y-121391243D01*
X129196307Y-121629069D01*
X129289102Y-121853097D01*
X129423820Y-122054717D01*
X129595283Y-122226180D01*
X129796903Y-122360898D01*
X130020931Y-122453693D01*
X130258757Y-122501000D01*
X130501243Y-122501000D01*
X130739069Y-122453693D01*
X130963097Y-122360898D01*
X131164717Y-122226180D01*
X131336180Y-122054717D01*
X131470898Y-121853097D01*
X131563693Y-121629069D01*
X131611000Y-121391243D01*
X131611000Y-121148757D01*
X131689000Y-121148757D01*
X131689000Y-121391243D01*
X131736307Y-121629069D01*
X131829102Y-121853097D01*
X131963820Y-122054717D01*
X132135283Y-122226180D01*
X132336903Y-122360898D01*
X132560931Y-122453693D01*
X132798757Y-122501000D01*
X133041243Y-122501000D01*
X133279069Y-122453693D01*
X133503097Y-122360898D01*
X133704717Y-122226180D01*
X133876180Y-122054717D01*
X134010898Y-121853097D01*
X134103693Y-121629069D01*
X134151000Y-121391243D01*
X134151000Y-121148757D01*
X134229000Y-121148757D01*
X134229000Y-121391243D01*
X134276307Y-121629069D01*
X134369102Y-121853097D01*
X134503820Y-122054717D01*
X134675283Y-122226180D01*
X134876903Y-122360898D01*
X135100931Y-122453693D01*
X135338757Y-122501000D01*
X135581243Y-122501000D01*
X135819069Y-122453693D01*
X136043097Y-122360898D01*
X136244717Y-122226180D01*
X136416180Y-122054717D01*
X136550898Y-121853097D01*
X136643693Y-121629069D01*
X136691000Y-121391243D01*
X136691000Y-121148757D01*
X136769000Y-121148757D01*
X136769000Y-121391243D01*
X136816307Y-121629069D01*
X136909102Y-121853097D01*
X137043820Y-122054717D01*
X137215283Y-122226180D01*
X137416903Y-122360898D01*
X137640931Y-122453693D01*
X137878757Y-122501000D01*
X138121243Y-122501000D01*
X138359069Y-122453693D01*
X138583097Y-122360898D01*
X138784717Y-122226180D01*
X138956180Y-122054717D01*
X139090898Y-121853097D01*
X139138228Y-121738832D01*
X139195843Y-121901252D01*
X139344822Y-122151355D01*
X139539731Y-122367588D01*
X139773080Y-122541641D01*
X140035901Y-122666825D01*
X140183110Y-122711476D01*
X140413000Y-122590155D01*
X140413000Y-121397000D01*
X140667000Y-121397000D01*
X140667000Y-122590155D01*
X140896890Y-122711476D01*
X141044099Y-122666825D01*
X141306920Y-122541641D01*
X141540269Y-122367588D01*
X141735178Y-122151355D01*
X141810000Y-122025745D01*
X141884822Y-122151355D01*
X142079731Y-122367588D01*
X142313080Y-122541641D01*
X142575901Y-122666825D01*
X142723110Y-122711476D01*
X142953000Y-122590155D01*
X142953000Y-121397000D01*
X140667000Y-121397000D01*
X140413000Y-121397000D01*
X140393000Y-121397000D01*
X140393000Y-121143000D01*
X140413000Y-121143000D01*
X140413000Y-119949845D01*
X140667000Y-119949845D01*
X140667000Y-121143000D01*
X142953000Y-121143000D01*
X142953000Y-119949845D01*
X143207000Y-119949845D01*
X143207000Y-121143000D01*
X143227000Y-121143000D01*
X143227000Y-121397000D01*
X143207000Y-121397000D01*
X143207000Y-122590155D01*
X143436890Y-122711476D01*
X143584099Y-122666825D01*
X143846920Y-122541641D01*
X144080269Y-122367588D01*
X144275178Y-122151355D01*
X144424157Y-121901252D01*
X144481772Y-121738832D01*
X144529102Y-121853097D01*
X144663820Y-122054717D01*
X144835283Y-122226180D01*
X145036903Y-122360898D01*
X145260931Y-122453693D01*
X145498757Y-122501000D01*
X145741243Y-122501000D01*
X145979069Y-122453693D01*
X146203097Y-122360898D01*
X146404717Y-122226180D01*
X146576180Y-122054717D01*
X146710898Y-121853097D01*
X146803693Y-121629069D01*
X146851000Y-121391243D01*
X146851000Y-121148757D01*
X146803693Y-120910931D01*
X146710898Y-120686903D01*
X146576180Y-120485283D01*
X146520897Y-120430000D01*
X149467157Y-120430000D01*
X149467157Y-122130000D01*
X149474513Y-122204689D01*
X149496299Y-122276508D01*
X149531678Y-122342696D01*
X149579289Y-122400711D01*
X149637304Y-122448322D01*
X149703492Y-122483701D01*
X149775311Y-122505487D01*
X149850000Y-122512843D01*
X151550000Y-122512843D01*
X151624689Y-122505487D01*
X151696508Y-122483701D01*
X151762696Y-122448322D01*
X151820711Y-122400711D01*
X151868322Y-122342696D01*
X151903701Y-122276508D01*
X151925487Y-122204689D01*
X151932843Y-122130000D01*
X151932843Y-121158757D01*
X152009000Y-121158757D01*
X152009000Y-121401243D01*
X152056307Y-121639069D01*
X152149102Y-121863097D01*
X152283820Y-122064717D01*
X152455283Y-122236180D01*
X152656903Y-122370898D01*
X152880931Y-122463693D01*
X153118757Y-122511000D01*
X153361243Y-122511000D01*
X153599069Y-122463693D01*
X153823097Y-122370898D01*
X154024717Y-122236180D01*
X154196180Y-122064717D01*
X154330898Y-121863097D01*
X154423693Y-121639069D01*
X154471000Y-121401243D01*
X154471000Y-121158757D01*
X154549000Y-121158757D01*
X154549000Y-121401243D01*
X154596307Y-121639069D01*
X154689102Y-121863097D01*
X154823820Y-122064717D01*
X154995283Y-122236180D01*
X155196903Y-122370898D01*
X155420931Y-122463693D01*
X155658757Y-122511000D01*
X155901243Y-122511000D01*
X156139069Y-122463693D01*
X156363097Y-122370898D01*
X156564717Y-122236180D01*
X156736180Y-122064717D01*
X156870898Y-121863097D01*
X156963693Y-121639069D01*
X157011000Y-121401243D01*
X157011000Y-121158757D01*
X157089000Y-121158757D01*
X157089000Y-121401243D01*
X157136307Y-121639069D01*
X157229102Y-121863097D01*
X157363820Y-122064717D01*
X157535283Y-122236180D01*
X157736903Y-122370898D01*
X157960931Y-122463693D01*
X158198757Y-122511000D01*
X158441243Y-122511000D01*
X158679069Y-122463693D01*
X158903097Y-122370898D01*
X159104717Y-122236180D01*
X159276180Y-122064717D01*
X159410898Y-121863097D01*
X159503693Y-121639069D01*
X159551000Y-121401243D01*
X159551000Y-121158757D01*
X159629000Y-121158757D01*
X159629000Y-121401243D01*
X159676307Y-121639069D01*
X159769102Y-121863097D01*
X159903820Y-122064717D01*
X160075283Y-122236180D01*
X160276903Y-122370898D01*
X160500931Y-122463693D01*
X160738757Y-122511000D01*
X160981243Y-122511000D01*
X161219069Y-122463693D01*
X161443097Y-122370898D01*
X161644717Y-122236180D01*
X161816180Y-122064717D01*
X161950898Y-121863097D01*
X162043693Y-121639069D01*
X162091000Y-121401243D01*
X162091000Y-121158757D01*
X162169000Y-121158757D01*
X162169000Y-121401243D01*
X162216307Y-121639069D01*
X162309102Y-121863097D01*
X162443820Y-122064717D01*
X162615283Y-122236180D01*
X162816903Y-122370898D01*
X163040931Y-122463693D01*
X163278757Y-122511000D01*
X163521243Y-122511000D01*
X163759069Y-122463693D01*
X163983097Y-122370898D01*
X164184717Y-122236180D01*
X164356180Y-122064717D01*
X164490898Y-121863097D01*
X164583693Y-121639069D01*
X164631000Y-121401243D01*
X164631000Y-121158757D01*
X164583693Y-120920931D01*
X164490898Y-120696903D01*
X164356180Y-120495283D01*
X164184717Y-120323820D01*
X163983097Y-120189102D01*
X163759069Y-120096307D01*
X163521243Y-120049000D01*
X163278757Y-120049000D01*
X163040931Y-120096307D01*
X162816903Y-120189102D01*
X162615283Y-120323820D01*
X162443820Y-120495283D01*
X162309102Y-120696903D01*
X162216307Y-120920931D01*
X162169000Y-121158757D01*
X162091000Y-121158757D01*
X162043693Y-120920931D01*
X161950898Y-120696903D01*
X161816180Y-120495283D01*
X161644717Y-120323820D01*
X161443097Y-120189102D01*
X161219069Y-120096307D01*
X160981243Y-120049000D01*
X160738757Y-120049000D01*
X160500931Y-120096307D01*
X160276903Y-120189102D01*
X160075283Y-120323820D01*
X159903820Y-120495283D01*
X159769102Y-120696903D01*
X159676307Y-120920931D01*
X159629000Y-121158757D01*
X159551000Y-121158757D01*
X159503693Y-120920931D01*
X159410898Y-120696903D01*
X159276180Y-120495283D01*
X159104717Y-120323820D01*
X158903097Y-120189102D01*
X158679069Y-120096307D01*
X158441243Y-120049000D01*
X158198757Y-120049000D01*
X157960931Y-120096307D01*
X157736903Y-120189102D01*
X157535283Y-120323820D01*
X157363820Y-120495283D01*
X157229102Y-120696903D01*
X157136307Y-120920931D01*
X157089000Y-121158757D01*
X157011000Y-121158757D01*
X156963693Y-120920931D01*
X156870898Y-120696903D01*
X156736180Y-120495283D01*
X156564717Y-120323820D01*
X156363097Y-120189102D01*
X156139069Y-120096307D01*
X155901243Y-120049000D01*
X155658757Y-120049000D01*
X155420931Y-120096307D01*
X155196903Y-120189102D01*
X154995283Y-120323820D01*
X154823820Y-120495283D01*
X154689102Y-120696903D01*
X154596307Y-120920931D01*
X154549000Y-121158757D01*
X154471000Y-121158757D01*
X154423693Y-120920931D01*
X154330898Y-120696903D01*
X154196180Y-120495283D01*
X154024717Y-120323820D01*
X153823097Y-120189102D01*
X153599069Y-120096307D01*
X153361243Y-120049000D01*
X153118757Y-120049000D01*
X152880931Y-120096307D01*
X152656903Y-120189102D01*
X152455283Y-120323820D01*
X152283820Y-120495283D01*
X152149102Y-120696903D01*
X152056307Y-120920931D01*
X152009000Y-121158757D01*
X151932843Y-121158757D01*
X151932843Y-120430000D01*
X151925487Y-120355311D01*
X151903701Y-120283492D01*
X151868322Y-120217304D01*
X151820711Y-120159289D01*
X151762696Y-120111678D01*
X151696508Y-120076299D01*
X151624689Y-120054513D01*
X151550000Y-120047157D01*
X149850000Y-120047157D01*
X149775311Y-120054513D01*
X149703492Y-120076299D01*
X149637304Y-120111678D01*
X149579289Y-120159289D01*
X149531678Y-120217304D01*
X149496299Y-120283492D01*
X149474513Y-120355311D01*
X149467157Y-120430000D01*
X146520897Y-120430000D01*
X146404717Y-120313820D01*
X146203097Y-120179102D01*
X145979069Y-120086307D01*
X145741243Y-120039000D01*
X145498757Y-120039000D01*
X145260931Y-120086307D01*
X145036903Y-120179102D01*
X144835283Y-120313820D01*
X144663820Y-120485283D01*
X144529102Y-120686903D01*
X144481772Y-120801168D01*
X144424157Y-120638748D01*
X144275178Y-120388645D01*
X144080269Y-120172412D01*
X143846920Y-119998359D01*
X143584099Y-119873175D01*
X143436890Y-119828524D01*
X143207000Y-119949845D01*
X142953000Y-119949845D01*
X142723110Y-119828524D01*
X142575901Y-119873175D01*
X142313080Y-119998359D01*
X142079731Y-120172412D01*
X141884822Y-120388645D01*
X141810000Y-120514255D01*
X141735178Y-120388645D01*
X141540269Y-120172412D01*
X141306920Y-119998359D01*
X141044099Y-119873175D01*
X140896890Y-119828524D01*
X140667000Y-119949845D01*
X140413000Y-119949845D01*
X140183110Y-119828524D01*
X140035901Y-119873175D01*
X139773080Y-119998359D01*
X139539731Y-120172412D01*
X139344822Y-120388645D01*
X139195843Y-120638748D01*
X139138228Y-120801168D01*
X139090898Y-120686903D01*
X138956180Y-120485283D01*
X138784717Y-120313820D01*
X138583097Y-120179102D01*
X138359069Y-120086307D01*
X138121243Y-120039000D01*
X137878757Y-120039000D01*
X137640931Y-120086307D01*
X137416903Y-120179102D01*
X137215283Y-120313820D01*
X137043820Y-120485283D01*
X136909102Y-120686903D01*
X136816307Y-120910931D01*
X136769000Y-121148757D01*
X136691000Y-121148757D01*
X136643693Y-120910931D01*
X136550898Y-120686903D01*
X136416180Y-120485283D01*
X136244717Y-120313820D01*
X136043097Y-120179102D01*
X135819069Y-120086307D01*
X135581243Y-120039000D01*
X135338757Y-120039000D01*
X135100931Y-120086307D01*
X134876903Y-120179102D01*
X134675283Y-120313820D01*
X134503820Y-120485283D01*
X134369102Y-120686903D01*
X134276307Y-120910931D01*
X134229000Y-121148757D01*
X134151000Y-121148757D01*
X134103693Y-120910931D01*
X134010898Y-120686903D01*
X133876180Y-120485283D01*
X133704717Y-120313820D01*
X133503097Y-120179102D01*
X133279069Y-120086307D01*
X133041243Y-120039000D01*
X132798757Y-120039000D01*
X132560931Y-120086307D01*
X132336903Y-120179102D01*
X132135283Y-120313820D01*
X131963820Y-120485283D01*
X131829102Y-120686903D01*
X131736307Y-120910931D01*
X131689000Y-121148757D01*
X131611000Y-121148757D01*
X131563693Y-120910931D01*
X131470898Y-120686903D01*
X131336180Y-120485283D01*
X131164717Y-120313820D01*
X130963097Y-120179102D01*
X130739069Y-120086307D01*
X130501243Y-120039000D01*
X130258757Y-120039000D01*
X130020931Y-120086307D01*
X129796903Y-120179102D01*
X129595283Y-120313820D01*
X129423820Y-120485283D01*
X129289102Y-120686903D01*
X129196307Y-120910931D01*
X129149000Y-121148757D01*
X129072843Y-121148757D01*
X129072843Y-120420000D01*
X129065487Y-120345311D01*
X129043701Y-120273492D01*
X129008322Y-120207304D01*
X128960711Y-120149289D01*
X128902696Y-120101678D01*
X128836508Y-120066299D01*
X128764689Y-120044513D01*
X128690000Y-120037157D01*
X126990000Y-120037157D01*
X126915311Y-120044513D01*
X126843492Y-120066299D01*
X126777304Y-120101678D01*
X126719289Y-120149289D01*
X126671678Y-120207304D01*
X126636299Y-120273492D01*
X126614513Y-120345311D01*
X126607157Y-120420000D01*
X115657995Y-120420000D01*
X115625539Y-120341645D01*
X115408743Y-120017186D01*
X115132814Y-119741257D01*
X114808355Y-119524461D01*
X114447836Y-119375129D01*
X114065111Y-119299000D01*
X113674889Y-119299000D01*
X113292164Y-119375129D01*
X112931645Y-119524461D01*
X112607186Y-119741257D01*
X112331257Y-120017186D01*
X112114461Y-120341645D01*
X111965129Y-120702164D01*
X111889000Y-121084889D01*
X100306000Y-121084889D01*
X100306000Y-116004889D01*
X163959000Y-116004889D01*
X163959000Y-116395111D01*
X164035129Y-116777836D01*
X164184461Y-117138355D01*
X164401257Y-117462814D01*
X164677186Y-117738743D01*
X165001645Y-117955539D01*
X165362164Y-118104871D01*
X165744889Y-118181000D01*
X166135111Y-118181000D01*
X166517836Y-118104871D01*
X166878355Y-117955539D01*
X167202814Y-117738743D01*
X167478743Y-117462814D01*
X167695539Y-117138355D01*
X167844871Y-116777836D01*
X167921000Y-116395111D01*
X167921000Y-116004889D01*
X167844871Y-115622164D01*
X167695539Y-115261645D01*
X167478743Y-114937186D01*
X167202814Y-114661257D01*
X166878355Y-114444461D01*
X166517836Y-114295129D01*
X166135111Y-114219000D01*
X165744889Y-114219000D01*
X165362164Y-114295129D01*
X165001645Y-114444461D01*
X164677186Y-114661257D01*
X164401257Y-114937186D01*
X164184461Y-115261645D01*
X164035129Y-115622164D01*
X163959000Y-116004889D01*
X100306000Y-116004889D01*
X100306000Y-100173078D01*
X148419000Y-100173078D01*
X148419000Y-100326922D01*
X148449013Y-100477809D01*
X148507887Y-100619942D01*
X148593358Y-100747859D01*
X148702141Y-100856642D01*
X148704001Y-100857885D01*
X148704000Y-102221499D01*
X148603358Y-102322141D01*
X148517887Y-102450058D01*
X148459013Y-102592191D01*
X148429000Y-102743078D01*
X148429000Y-102896922D01*
X148459013Y-103047809D01*
X148517887Y-103189942D01*
X148603358Y-103317859D01*
X148712141Y-103426642D01*
X148840058Y-103512113D01*
X148982191Y-103570987D01*
X149133078Y-103601000D01*
X149286922Y-103601000D01*
X149437809Y-103570987D01*
X149579942Y-103512113D01*
X149707859Y-103426642D01*
X149816642Y-103317859D01*
X149902113Y-103189942D01*
X149960987Y-103047809D01*
X149991000Y-102896922D01*
X149991000Y-102743078D01*
X149960987Y-102592191D01*
X149902113Y-102450058D01*
X149816642Y-102322141D01*
X149716000Y-102221499D01*
X149716000Y-100838501D01*
X149806642Y-100747859D01*
X149892113Y-100619942D01*
X149950987Y-100477809D01*
X149981000Y-100326922D01*
X149981000Y-100173078D01*
X149950987Y-100022191D01*
X149892113Y-99880058D01*
X149806642Y-99752141D01*
X149697859Y-99643358D01*
X149569942Y-99557887D01*
X149427809Y-99499013D01*
X149276922Y-99469000D01*
X149123078Y-99469000D01*
X148972191Y-99499013D01*
X148830058Y-99557887D01*
X148702141Y-99643358D01*
X148593358Y-99752141D01*
X148507887Y-99880058D01*
X148449013Y-100022191D01*
X148419000Y-100173078D01*
X100306000Y-100173078D01*
X100306000Y-88064889D01*
X163959000Y-88064889D01*
X163959000Y-88455111D01*
X164035129Y-88837836D01*
X164184461Y-89198355D01*
X164401257Y-89522814D01*
X164677186Y-89798743D01*
X165001645Y-90015539D01*
X165362164Y-90164871D01*
X165744889Y-90241000D01*
X166135111Y-90241000D01*
X166517836Y-90164871D01*
X166878355Y-90015539D01*
X167202814Y-89798743D01*
X167478743Y-89522814D01*
X167695539Y-89198355D01*
X167844871Y-88837836D01*
X167921000Y-88455111D01*
X167921000Y-88064889D01*
X167844871Y-87682164D01*
X167695539Y-87321645D01*
X167478743Y-86997186D01*
X167202814Y-86721257D01*
X166878355Y-86504461D01*
X166517836Y-86355129D01*
X166135111Y-86279000D01*
X165744889Y-86279000D01*
X165362164Y-86355129D01*
X165001645Y-86504461D01*
X164677186Y-86721257D01*
X164401257Y-86997186D01*
X164184461Y-87321645D01*
X164035129Y-87682164D01*
X163959000Y-88064889D01*
X100306000Y-88064889D01*
X100306000Y-72824889D01*
X113159000Y-72824889D01*
X113159000Y-73215111D01*
X113235129Y-73597836D01*
X113384461Y-73958355D01*
X113601257Y-74282814D01*
X113877186Y-74558743D01*
X114201645Y-74775539D01*
X114562164Y-74924871D01*
X114944889Y-75001000D01*
X115335111Y-75001000D01*
X115717836Y-74924871D01*
X116078355Y-74775539D01*
X116402814Y-74558743D01*
X116678743Y-74282814D01*
X116895539Y-73958355D01*
X117044871Y-73597836D01*
X117121000Y-73215111D01*
X117121000Y-72908757D01*
X117469000Y-72908757D01*
X117469000Y-73151243D01*
X117516307Y-73389069D01*
X117609102Y-73613097D01*
X117743820Y-73814717D01*
X117915283Y-73986180D01*
X118116903Y-74120898D01*
X118340931Y-74213693D01*
X118578757Y-74261000D01*
X118821243Y-74261000D01*
X119059069Y-74213693D01*
X119283097Y-74120898D01*
X119484717Y-73986180D01*
X119656180Y-73814717D01*
X119790898Y-73613097D01*
X119883693Y-73389069D01*
X119931000Y-73151243D01*
X119931000Y-72908757D01*
X120009000Y-72908757D01*
X120009000Y-73151243D01*
X120056307Y-73389069D01*
X120149102Y-73613097D01*
X120283820Y-73814717D01*
X120455283Y-73986180D01*
X120656903Y-74120898D01*
X120880931Y-74213693D01*
X121118757Y-74261000D01*
X121361243Y-74261000D01*
X121599069Y-74213693D01*
X121823097Y-74120898D01*
X122024717Y-73986180D01*
X122196180Y-73814717D01*
X122330898Y-73613097D01*
X122423693Y-73389069D01*
X122471000Y-73151243D01*
X122471000Y-72908757D01*
X122549000Y-72908757D01*
X122549000Y-73151243D01*
X122596307Y-73389069D01*
X122689102Y-73613097D01*
X122823820Y-73814717D01*
X122995283Y-73986180D01*
X123196903Y-74120898D01*
X123420931Y-74213693D01*
X123658757Y-74261000D01*
X123901243Y-74261000D01*
X124139069Y-74213693D01*
X124363097Y-74120898D01*
X124564717Y-73986180D01*
X124736180Y-73814717D01*
X124870898Y-73613097D01*
X124918228Y-73498832D01*
X124975843Y-73661252D01*
X125124822Y-73911355D01*
X125319731Y-74127588D01*
X125553080Y-74301641D01*
X125815901Y-74426825D01*
X125963110Y-74471476D01*
X126193000Y-74350155D01*
X126193000Y-73157000D01*
X126173000Y-73157000D01*
X126173000Y-72903000D01*
X126193000Y-72903000D01*
X126193000Y-71709845D01*
X126447000Y-71709845D01*
X126447000Y-72903000D01*
X126467000Y-72903000D01*
X126467000Y-73157000D01*
X126447000Y-73157000D01*
X126447000Y-74350155D01*
X126676890Y-74471476D01*
X126824099Y-74426825D01*
X127086920Y-74301641D01*
X127320269Y-74127588D01*
X127515178Y-73911355D01*
X127664157Y-73661252D01*
X127721772Y-73498832D01*
X127769102Y-73613097D01*
X127903820Y-73814717D01*
X128075283Y-73986180D01*
X128276903Y-74120898D01*
X128500931Y-74213693D01*
X128738757Y-74261000D01*
X128981243Y-74261000D01*
X129219069Y-74213693D01*
X129443097Y-74120898D01*
X129644717Y-73986180D01*
X129816180Y-73814717D01*
X129950898Y-73613097D01*
X130043693Y-73389069D01*
X130091000Y-73151243D01*
X130091000Y-72908757D01*
X130169000Y-72908757D01*
X130169000Y-73151243D01*
X130216307Y-73389069D01*
X130309102Y-73613097D01*
X130443820Y-73814717D01*
X130615283Y-73986180D01*
X130816903Y-74120898D01*
X131040931Y-74213693D01*
X131278757Y-74261000D01*
X131521243Y-74261000D01*
X131759069Y-74213693D01*
X131983097Y-74120898D01*
X132184717Y-73986180D01*
X132356180Y-73814717D01*
X132490898Y-73613097D01*
X132583693Y-73389069D01*
X132631000Y-73151243D01*
X132631000Y-72908757D01*
X132709000Y-72908757D01*
X132709000Y-73151243D01*
X132756307Y-73389069D01*
X132849102Y-73613097D01*
X132983820Y-73814717D01*
X133155283Y-73986180D01*
X133356903Y-74120898D01*
X133580931Y-74213693D01*
X133818757Y-74261000D01*
X134061243Y-74261000D01*
X134299069Y-74213693D01*
X134523097Y-74120898D01*
X134724717Y-73986180D01*
X134896180Y-73814717D01*
X135030898Y-73613097D01*
X135123693Y-73389069D01*
X135171000Y-73151243D01*
X135171000Y-72908757D01*
X135249000Y-72908757D01*
X135249000Y-73151243D01*
X135296307Y-73389069D01*
X135389102Y-73613097D01*
X135523820Y-73814717D01*
X135695283Y-73986180D01*
X135896903Y-74120898D01*
X136120931Y-74213693D01*
X136358757Y-74261000D01*
X136601243Y-74261000D01*
X136839069Y-74213693D01*
X137063097Y-74120898D01*
X137264717Y-73986180D01*
X137436180Y-73814717D01*
X137570898Y-73613097D01*
X137663693Y-73389069D01*
X137711000Y-73151243D01*
X137711000Y-72908757D01*
X137789000Y-72908757D01*
X137789000Y-73151243D01*
X137836307Y-73389069D01*
X137929102Y-73613097D01*
X138063820Y-73814717D01*
X138235283Y-73986180D01*
X138436903Y-74120898D01*
X138660931Y-74213693D01*
X138898757Y-74261000D01*
X139141243Y-74261000D01*
X139379069Y-74213693D01*
X139603097Y-74120898D01*
X139804717Y-73986180D01*
X139976180Y-73814717D01*
X140110898Y-73613097D01*
X140203693Y-73389069D01*
X140251000Y-73151243D01*
X140251000Y-72908757D01*
X140203693Y-72670931D01*
X140110898Y-72446903D01*
X139976180Y-72245283D01*
X139910897Y-72180000D01*
X140327157Y-72180000D01*
X140327157Y-73880000D01*
X140334513Y-73954689D01*
X140356299Y-74026508D01*
X140391678Y-74092696D01*
X140439289Y-74150711D01*
X140497304Y-74198322D01*
X140563492Y-74233701D01*
X140635311Y-74255487D01*
X140710000Y-74262843D01*
X142410000Y-74262843D01*
X142484689Y-74255487D01*
X142556508Y-74233701D01*
X142622696Y-74198322D01*
X142680711Y-74150711D01*
X142728322Y-74092696D01*
X142763701Y-74026508D01*
X142785487Y-73954689D01*
X142792843Y-73880000D01*
X142792843Y-72888757D01*
X144389000Y-72888757D01*
X144389000Y-73131243D01*
X144436307Y-73369069D01*
X144529102Y-73593097D01*
X144663820Y-73794717D01*
X144835283Y-73966180D01*
X145036903Y-74100898D01*
X145260931Y-74193693D01*
X145498757Y-74241000D01*
X145741243Y-74241000D01*
X145979069Y-74193693D01*
X146203097Y-74100898D01*
X146404717Y-73966180D01*
X146576180Y-73794717D01*
X146710898Y-73593097D01*
X146803693Y-73369069D01*
X146851000Y-73131243D01*
X146851000Y-72888757D01*
X146929000Y-72888757D01*
X146929000Y-73131243D01*
X146976307Y-73369069D01*
X147069102Y-73593097D01*
X147203820Y-73794717D01*
X147375283Y-73966180D01*
X147576903Y-74100898D01*
X147800931Y-74193693D01*
X148038757Y-74241000D01*
X148281243Y-74241000D01*
X148519069Y-74193693D01*
X148743097Y-74100898D01*
X148944717Y-73966180D01*
X149116180Y-73794717D01*
X149250898Y-73593097D01*
X149343693Y-73369069D01*
X149391000Y-73131243D01*
X149391000Y-72888757D01*
X149469000Y-72888757D01*
X149469000Y-73131243D01*
X149516307Y-73369069D01*
X149609102Y-73593097D01*
X149743820Y-73794717D01*
X149915283Y-73966180D01*
X150116903Y-74100898D01*
X150340931Y-74193693D01*
X150578757Y-74241000D01*
X150821243Y-74241000D01*
X151059069Y-74193693D01*
X151283097Y-74100898D01*
X151484717Y-73966180D01*
X151656180Y-73794717D01*
X151790898Y-73593097D01*
X151883693Y-73369069D01*
X151931000Y-73131243D01*
X151931000Y-72888757D01*
X152009000Y-72888757D01*
X152009000Y-73131243D01*
X152056307Y-73369069D01*
X152149102Y-73593097D01*
X152283820Y-73794717D01*
X152455283Y-73966180D01*
X152656903Y-74100898D01*
X152880931Y-74193693D01*
X153118757Y-74241000D01*
X153361243Y-74241000D01*
X153599069Y-74193693D01*
X153823097Y-74100898D01*
X154024717Y-73966180D01*
X154196180Y-73794717D01*
X154330898Y-73593097D01*
X154423693Y-73369069D01*
X154471000Y-73131243D01*
X154471000Y-72888757D01*
X154549000Y-72888757D01*
X154549000Y-73131243D01*
X154596307Y-73369069D01*
X154689102Y-73593097D01*
X154823820Y-73794717D01*
X154995283Y-73966180D01*
X155196903Y-74100898D01*
X155420931Y-74193693D01*
X155658757Y-74241000D01*
X155901243Y-74241000D01*
X156139069Y-74193693D01*
X156363097Y-74100898D01*
X156564717Y-73966180D01*
X156736180Y-73794717D01*
X156870898Y-73593097D01*
X156963693Y-73369069D01*
X157011000Y-73131243D01*
X157011000Y-72888757D01*
X157089000Y-72888757D01*
X157089000Y-73131243D01*
X157136307Y-73369069D01*
X157229102Y-73593097D01*
X157363820Y-73794717D01*
X157535283Y-73966180D01*
X157736903Y-74100898D01*
X157960931Y-74193693D01*
X158198757Y-74241000D01*
X158441243Y-74241000D01*
X158679069Y-74193693D01*
X158903097Y-74100898D01*
X159104717Y-73966180D01*
X159276180Y-73794717D01*
X159410898Y-73593097D01*
X159503693Y-73369069D01*
X159551000Y-73131243D01*
X159551000Y-72888757D01*
X159629000Y-72888757D01*
X159629000Y-73131243D01*
X159676307Y-73369069D01*
X159769102Y-73593097D01*
X159903820Y-73794717D01*
X160075283Y-73966180D01*
X160276903Y-74100898D01*
X160500931Y-74193693D01*
X160738757Y-74241000D01*
X160981243Y-74241000D01*
X161219069Y-74193693D01*
X161443097Y-74100898D01*
X161644717Y-73966180D01*
X161816180Y-73794717D01*
X161950898Y-73593097D01*
X162043693Y-73369069D01*
X162091000Y-73131243D01*
X162091000Y-72888757D01*
X162043693Y-72650931D01*
X161950898Y-72426903D01*
X161816180Y-72225283D01*
X161750897Y-72160000D01*
X162167157Y-72160000D01*
X162167157Y-73860000D01*
X162174513Y-73934689D01*
X162196299Y-74006508D01*
X162231678Y-74072696D01*
X162279289Y-74130711D01*
X162337304Y-74178322D01*
X162403492Y-74213701D01*
X162475311Y-74235487D01*
X162550000Y-74242843D01*
X164250000Y-74242843D01*
X164324689Y-74235487D01*
X164396508Y-74213701D01*
X164462696Y-74178322D01*
X164520711Y-74130711D01*
X164568322Y-74072696D01*
X164603701Y-74006508D01*
X164625487Y-73934689D01*
X164632843Y-73860000D01*
X164632843Y-72160000D01*
X164625487Y-72085311D01*
X164603701Y-72013492D01*
X164568322Y-71947304D01*
X164520711Y-71889289D01*
X164462696Y-71841678D01*
X164396508Y-71806299D01*
X164324689Y-71784513D01*
X164250000Y-71777157D01*
X162550000Y-71777157D01*
X162475311Y-71784513D01*
X162403492Y-71806299D01*
X162337304Y-71841678D01*
X162279289Y-71889289D01*
X162231678Y-71947304D01*
X162196299Y-72013492D01*
X162174513Y-72085311D01*
X162167157Y-72160000D01*
X161750897Y-72160000D01*
X161644717Y-72053820D01*
X161443097Y-71919102D01*
X161219069Y-71826307D01*
X160981243Y-71779000D01*
X160738757Y-71779000D01*
X160500931Y-71826307D01*
X160276903Y-71919102D01*
X160075283Y-72053820D01*
X159903820Y-72225283D01*
X159769102Y-72426903D01*
X159676307Y-72650931D01*
X159629000Y-72888757D01*
X159551000Y-72888757D01*
X159503693Y-72650931D01*
X159410898Y-72426903D01*
X159276180Y-72225283D01*
X159104717Y-72053820D01*
X158903097Y-71919102D01*
X158679069Y-71826307D01*
X158441243Y-71779000D01*
X158198757Y-71779000D01*
X157960931Y-71826307D01*
X157736903Y-71919102D01*
X157535283Y-72053820D01*
X157363820Y-72225283D01*
X157229102Y-72426903D01*
X157136307Y-72650931D01*
X157089000Y-72888757D01*
X157011000Y-72888757D01*
X156963693Y-72650931D01*
X156870898Y-72426903D01*
X156736180Y-72225283D01*
X156564717Y-72053820D01*
X156363097Y-71919102D01*
X156139069Y-71826307D01*
X155901243Y-71779000D01*
X155658757Y-71779000D01*
X155420931Y-71826307D01*
X155196903Y-71919102D01*
X154995283Y-72053820D01*
X154823820Y-72225283D01*
X154689102Y-72426903D01*
X154596307Y-72650931D01*
X154549000Y-72888757D01*
X154471000Y-72888757D01*
X154423693Y-72650931D01*
X154330898Y-72426903D01*
X154196180Y-72225283D01*
X154024717Y-72053820D01*
X153823097Y-71919102D01*
X153599069Y-71826307D01*
X153361243Y-71779000D01*
X153118757Y-71779000D01*
X152880931Y-71826307D01*
X152656903Y-71919102D01*
X152455283Y-72053820D01*
X152283820Y-72225283D01*
X152149102Y-72426903D01*
X152056307Y-72650931D01*
X152009000Y-72888757D01*
X151931000Y-72888757D01*
X151883693Y-72650931D01*
X151790898Y-72426903D01*
X151656180Y-72225283D01*
X151484717Y-72053820D01*
X151283097Y-71919102D01*
X151059069Y-71826307D01*
X150821243Y-71779000D01*
X150578757Y-71779000D01*
X150340931Y-71826307D01*
X150116903Y-71919102D01*
X149915283Y-72053820D01*
X149743820Y-72225283D01*
X149609102Y-72426903D01*
X149516307Y-72650931D01*
X149469000Y-72888757D01*
X149391000Y-72888757D01*
X149343693Y-72650931D01*
X149250898Y-72426903D01*
X149116180Y-72225283D01*
X148944717Y-72053820D01*
X148743097Y-71919102D01*
X148519069Y-71826307D01*
X148281243Y-71779000D01*
X148038757Y-71779000D01*
X147800931Y-71826307D01*
X147576903Y-71919102D01*
X147375283Y-72053820D01*
X147203820Y-72225283D01*
X147069102Y-72426903D01*
X146976307Y-72650931D01*
X146929000Y-72888757D01*
X146851000Y-72888757D01*
X146803693Y-72650931D01*
X146710898Y-72426903D01*
X146576180Y-72225283D01*
X146404717Y-72053820D01*
X146203097Y-71919102D01*
X145979069Y-71826307D01*
X145741243Y-71779000D01*
X145498757Y-71779000D01*
X145260931Y-71826307D01*
X145036903Y-71919102D01*
X144835283Y-72053820D01*
X144663820Y-72225283D01*
X144529102Y-72426903D01*
X144436307Y-72650931D01*
X144389000Y-72888757D01*
X142792843Y-72888757D01*
X142792843Y-72180000D01*
X142785487Y-72105311D01*
X142763701Y-72033492D01*
X142728322Y-71967304D01*
X142680711Y-71909289D01*
X142622696Y-71861678D01*
X142556508Y-71826299D01*
X142484689Y-71804513D01*
X142410000Y-71797157D01*
X140710000Y-71797157D01*
X140635311Y-71804513D01*
X140563492Y-71826299D01*
X140497304Y-71861678D01*
X140439289Y-71909289D01*
X140391678Y-71967304D01*
X140356299Y-72033492D01*
X140334513Y-72105311D01*
X140327157Y-72180000D01*
X139910897Y-72180000D01*
X139804717Y-72073820D01*
X139603097Y-71939102D01*
X139379069Y-71846307D01*
X139141243Y-71799000D01*
X138898757Y-71799000D01*
X138660931Y-71846307D01*
X138436903Y-71939102D01*
X138235283Y-72073820D01*
X138063820Y-72245283D01*
X137929102Y-72446903D01*
X137836307Y-72670931D01*
X137789000Y-72908757D01*
X137711000Y-72908757D01*
X137663693Y-72670931D01*
X137570898Y-72446903D01*
X137436180Y-72245283D01*
X137264717Y-72073820D01*
X137063097Y-71939102D01*
X136839069Y-71846307D01*
X136601243Y-71799000D01*
X136358757Y-71799000D01*
X136120931Y-71846307D01*
X135896903Y-71939102D01*
X135695283Y-72073820D01*
X135523820Y-72245283D01*
X135389102Y-72446903D01*
X135296307Y-72670931D01*
X135249000Y-72908757D01*
X135171000Y-72908757D01*
X135123693Y-72670931D01*
X135030898Y-72446903D01*
X134896180Y-72245283D01*
X134724717Y-72073820D01*
X134523097Y-71939102D01*
X134299069Y-71846307D01*
X134061243Y-71799000D01*
X133818757Y-71799000D01*
X133580931Y-71846307D01*
X133356903Y-71939102D01*
X133155283Y-72073820D01*
X132983820Y-72245283D01*
X132849102Y-72446903D01*
X132756307Y-72670931D01*
X132709000Y-72908757D01*
X132631000Y-72908757D01*
X132583693Y-72670931D01*
X132490898Y-72446903D01*
X132356180Y-72245283D01*
X132184717Y-72073820D01*
X131983097Y-71939102D01*
X131759069Y-71846307D01*
X131521243Y-71799000D01*
X131278757Y-71799000D01*
X131040931Y-71846307D01*
X130816903Y-71939102D01*
X130615283Y-72073820D01*
X130443820Y-72245283D01*
X130309102Y-72446903D01*
X130216307Y-72670931D01*
X130169000Y-72908757D01*
X130091000Y-72908757D01*
X130043693Y-72670931D01*
X129950898Y-72446903D01*
X129816180Y-72245283D01*
X129644717Y-72073820D01*
X129443097Y-71939102D01*
X129219069Y-71846307D01*
X128981243Y-71799000D01*
X128738757Y-71799000D01*
X128500931Y-71846307D01*
X128276903Y-71939102D01*
X128075283Y-72073820D01*
X127903820Y-72245283D01*
X127769102Y-72446903D01*
X127721772Y-72561168D01*
X127664157Y-72398748D01*
X127515178Y-72148645D01*
X127320269Y-71932412D01*
X127086920Y-71758359D01*
X126824099Y-71633175D01*
X126676890Y-71588524D01*
X126447000Y-71709845D01*
X126193000Y-71709845D01*
X125963110Y-71588524D01*
X125815901Y-71633175D01*
X125553080Y-71758359D01*
X125319731Y-71932412D01*
X125124822Y-72148645D01*
X124975843Y-72398748D01*
X124918228Y-72561168D01*
X124870898Y-72446903D01*
X124736180Y-72245283D01*
X124564717Y-72073820D01*
X124363097Y-71939102D01*
X124139069Y-71846307D01*
X123901243Y-71799000D01*
X123658757Y-71799000D01*
X123420931Y-71846307D01*
X123196903Y-71939102D01*
X122995283Y-72073820D01*
X122823820Y-72245283D01*
X122689102Y-72446903D01*
X122596307Y-72670931D01*
X122549000Y-72908757D01*
X122471000Y-72908757D01*
X122423693Y-72670931D01*
X122330898Y-72446903D01*
X122196180Y-72245283D01*
X122024717Y-72073820D01*
X121823097Y-71939102D01*
X121599069Y-71846307D01*
X121361243Y-71799000D01*
X121118757Y-71799000D01*
X120880931Y-71846307D01*
X120656903Y-71939102D01*
X120455283Y-72073820D01*
X120283820Y-72245283D01*
X120149102Y-72446903D01*
X120056307Y-72670931D01*
X120009000Y-72908757D01*
X119931000Y-72908757D01*
X119883693Y-72670931D01*
X119790898Y-72446903D01*
X119656180Y-72245283D01*
X119484717Y-72073820D01*
X119283097Y-71939102D01*
X119059069Y-71846307D01*
X118821243Y-71799000D01*
X118578757Y-71799000D01*
X118340931Y-71846307D01*
X118116903Y-71939102D01*
X117915283Y-72073820D01*
X117743820Y-72245283D01*
X117609102Y-72446903D01*
X117516307Y-72670931D01*
X117469000Y-72908757D01*
X117121000Y-72908757D01*
X117121000Y-72824889D01*
X117044871Y-72442164D01*
X116895539Y-72081645D01*
X116678743Y-71757186D01*
X116402814Y-71481257D01*
X116078355Y-71264461D01*
X115717836Y-71115129D01*
X115335111Y-71039000D01*
X114944889Y-71039000D01*
X114562164Y-71115129D01*
X114201645Y-71264461D01*
X113877186Y-71481257D01*
X113601257Y-71757186D01*
X113384461Y-72081645D01*
X113235129Y-72442164D01*
X113159000Y-72824889D01*
X100306000Y-72824889D01*
X100306000Y-70886000D01*
X164251831Y-70886000D01*
X165534001Y-72168171D01*
G37*
X165534001Y-72168171D02*
X165534000Y-83330059D01*
X165534000Y-83409630D01*
X165532038Y-83429123D01*
X165534000Y-83449494D01*
X165534000Y-83449940D01*
X165535938Y-83469621D01*
X165539705Y-83508729D01*
X165539832Y-83509150D01*
X165539875Y-83509589D01*
X165551396Y-83547571D01*
X165562756Y-83585310D01*
X165562962Y-83585697D01*
X165563090Y-83586120D01*
X165581833Y-83621186D01*
X165600304Y-83655922D01*
X165600581Y-83656261D01*
X165600790Y-83656652D01*
X165625990Y-83687358D01*
X165638228Y-83702336D01*
X165638535Y-83702644D01*
X165651526Y-83718474D01*
X165666681Y-83730911D01*
X167958545Y-86032655D01*
X167958815Y-86032984D01*
X167972216Y-86046385D01*
X167986367Y-86060597D01*
X167986714Y-86060883D01*
X168074001Y-86148170D01*
X168074000Y-118571829D01*
X165667023Y-120978808D01*
X165651526Y-120991526D01*
X165600790Y-121053347D01*
X165563090Y-121123879D01*
X165539875Y-121200410D01*
X165534000Y-121260059D01*
X165534000Y-121260067D01*
X165532037Y-121280000D01*
X165534000Y-121299933D01*
X165534000Y-121309940D01*
X165534001Y-121309950D01*
X165534000Y-123414000D01*
X100306000Y-123414000D01*
X100306000Y-121084889D01*
X111889000Y-121084889D01*
X111889000Y-121475111D01*
X111965129Y-121857836D01*
X112114461Y-122218355D01*
X112331257Y-122542814D01*
X112607186Y-122818743D01*
X112931645Y-123035539D01*
X113292164Y-123184871D01*
X113674889Y-123261000D01*
X114065111Y-123261000D01*
X114447836Y-123184871D01*
X114808355Y-123035539D01*
X115132814Y-122818743D01*
X115408743Y-122542814D01*
X115625539Y-122218355D01*
X115774871Y-121857836D01*
X115851000Y-121475111D01*
X115851000Y-121084889D01*
X115774871Y-120702164D01*
X115657995Y-120420000D01*
X126607157Y-120420000D01*
X126607157Y-122120000D01*
X126614513Y-122194689D01*
X126636299Y-122266508D01*
X126671678Y-122332696D01*
X126719289Y-122390711D01*
X126777304Y-122438322D01*
X126843492Y-122473701D01*
X126915311Y-122495487D01*
X126990000Y-122502843D01*
X128690000Y-122502843D01*
X128764689Y-122495487D01*
X128836508Y-122473701D01*
X128902696Y-122438322D01*
X128960711Y-122390711D01*
X129008322Y-122332696D01*
X129043701Y-122266508D01*
X129065487Y-122194689D01*
X129072843Y-122120000D01*
X129072843Y-121148757D01*
X129149000Y-121148757D01*
X129149000Y-121391243D01*
X129196307Y-121629069D01*
X129289102Y-121853097D01*
X129423820Y-122054717D01*
X129595283Y-122226180D01*
X129796903Y-122360898D01*
X130020931Y-122453693D01*
X130258757Y-122501000D01*
X130501243Y-122501000D01*
X130739069Y-122453693D01*
X130963097Y-122360898D01*
X131164717Y-122226180D01*
X131336180Y-122054717D01*
X131470898Y-121853097D01*
X131563693Y-121629069D01*
X131611000Y-121391243D01*
X131611000Y-121148757D01*
X131689000Y-121148757D01*
X131689000Y-121391243D01*
X131736307Y-121629069D01*
X131829102Y-121853097D01*
X131963820Y-122054717D01*
X132135283Y-122226180D01*
X132336903Y-122360898D01*
X132560931Y-122453693D01*
X132798757Y-122501000D01*
X133041243Y-122501000D01*
X133279069Y-122453693D01*
X133503097Y-122360898D01*
X133704717Y-122226180D01*
X133876180Y-122054717D01*
X134010898Y-121853097D01*
X134103693Y-121629069D01*
X134151000Y-121391243D01*
X134151000Y-121148757D01*
X134229000Y-121148757D01*
X134229000Y-121391243D01*
X134276307Y-121629069D01*
X134369102Y-121853097D01*
X134503820Y-122054717D01*
X134675283Y-122226180D01*
X134876903Y-122360898D01*
X135100931Y-122453693D01*
X135338757Y-122501000D01*
X135581243Y-122501000D01*
X135819069Y-122453693D01*
X136043097Y-122360898D01*
X136244717Y-122226180D01*
X136416180Y-122054717D01*
X136550898Y-121853097D01*
X136643693Y-121629069D01*
X136691000Y-121391243D01*
X136691000Y-121148757D01*
X136769000Y-121148757D01*
X136769000Y-121391243D01*
X136816307Y-121629069D01*
X136909102Y-121853097D01*
X137043820Y-122054717D01*
X137215283Y-122226180D01*
X137416903Y-122360898D01*
X137640931Y-122453693D01*
X137878757Y-122501000D01*
X138121243Y-122501000D01*
X138359069Y-122453693D01*
X138583097Y-122360898D01*
X138784717Y-122226180D01*
X138956180Y-122054717D01*
X139090898Y-121853097D01*
X139138228Y-121738832D01*
X139195843Y-121901252D01*
X139344822Y-122151355D01*
X139539731Y-122367588D01*
X139773080Y-122541641D01*
X140035901Y-122666825D01*
X140183110Y-122711476D01*
X140413000Y-122590155D01*
X140413000Y-121397000D01*
X140667000Y-121397000D01*
X140667000Y-122590155D01*
X140896890Y-122711476D01*
X141044099Y-122666825D01*
X141306920Y-122541641D01*
X141540269Y-122367588D01*
X141735178Y-122151355D01*
X141810000Y-122025745D01*
X141884822Y-122151355D01*
X142079731Y-122367588D01*
X142313080Y-122541641D01*
X142575901Y-122666825D01*
X142723110Y-122711476D01*
X142953000Y-122590155D01*
X142953000Y-121397000D01*
X140667000Y-121397000D01*
X140413000Y-121397000D01*
X140393000Y-121397000D01*
X140393000Y-121143000D01*
X140413000Y-121143000D01*
X140413000Y-119949845D01*
X140667000Y-119949845D01*
X140667000Y-121143000D01*
X142953000Y-121143000D01*
X142953000Y-119949845D01*
X143207000Y-119949845D01*
X143207000Y-121143000D01*
X143227000Y-121143000D01*
X143227000Y-121397000D01*
X143207000Y-121397000D01*
X143207000Y-122590155D01*
X143436890Y-122711476D01*
X143584099Y-122666825D01*
X143846920Y-122541641D01*
X144080269Y-122367588D01*
X144275178Y-122151355D01*
X144424157Y-121901252D01*
X144481772Y-121738832D01*
X144529102Y-121853097D01*
X144663820Y-122054717D01*
X144835283Y-122226180D01*
X145036903Y-122360898D01*
X145260931Y-122453693D01*
X145498757Y-122501000D01*
X145741243Y-122501000D01*
X145979069Y-122453693D01*
X146203097Y-122360898D01*
X146404717Y-122226180D01*
X146576180Y-122054717D01*
X146710898Y-121853097D01*
X146803693Y-121629069D01*
X146851000Y-121391243D01*
X146851000Y-121148757D01*
X146803693Y-120910931D01*
X146710898Y-120686903D01*
X146576180Y-120485283D01*
X146520897Y-120430000D01*
X149467157Y-120430000D01*
X149467157Y-122130000D01*
X149474513Y-122204689D01*
X149496299Y-122276508D01*
X149531678Y-122342696D01*
X149579289Y-122400711D01*
X149637304Y-122448322D01*
X149703492Y-122483701D01*
X149775311Y-122505487D01*
X149850000Y-122512843D01*
X151550000Y-122512843D01*
X151624689Y-122505487D01*
X151696508Y-122483701D01*
X151762696Y-122448322D01*
X151820711Y-122400711D01*
X151868322Y-122342696D01*
X151903701Y-122276508D01*
X151925487Y-122204689D01*
X151932843Y-122130000D01*
X151932843Y-121158757D01*
X152009000Y-121158757D01*
X152009000Y-121401243D01*
X152056307Y-121639069D01*
X152149102Y-121863097D01*
X152283820Y-122064717D01*
X152455283Y-122236180D01*
X152656903Y-122370898D01*
X152880931Y-122463693D01*
X153118757Y-122511000D01*
X153361243Y-122511000D01*
X153599069Y-122463693D01*
X153823097Y-122370898D01*
X154024717Y-122236180D01*
X154196180Y-122064717D01*
X154330898Y-121863097D01*
X154423693Y-121639069D01*
X154471000Y-121401243D01*
X154471000Y-121158757D01*
X154549000Y-121158757D01*
X154549000Y-121401243D01*
X154596307Y-121639069D01*
X154689102Y-121863097D01*
X154823820Y-122064717D01*
X154995283Y-122236180D01*
X155196903Y-122370898D01*
X155420931Y-122463693D01*
X155658757Y-122511000D01*
X155901243Y-122511000D01*
X156139069Y-122463693D01*
X156363097Y-122370898D01*
X156564717Y-122236180D01*
X156736180Y-122064717D01*
X156870898Y-121863097D01*
X156963693Y-121639069D01*
X157011000Y-121401243D01*
X157011000Y-121158757D01*
X157089000Y-121158757D01*
X157089000Y-121401243D01*
X157136307Y-121639069D01*
X157229102Y-121863097D01*
X157363820Y-122064717D01*
X157535283Y-122236180D01*
X157736903Y-122370898D01*
X157960931Y-122463693D01*
X158198757Y-122511000D01*
X158441243Y-122511000D01*
X158679069Y-122463693D01*
X158903097Y-122370898D01*
X159104717Y-122236180D01*
X159276180Y-122064717D01*
X159410898Y-121863097D01*
X159503693Y-121639069D01*
X159551000Y-121401243D01*
X159551000Y-121158757D01*
X159629000Y-121158757D01*
X159629000Y-121401243D01*
X159676307Y-121639069D01*
X159769102Y-121863097D01*
X159903820Y-122064717D01*
X160075283Y-122236180D01*
X160276903Y-122370898D01*
X160500931Y-122463693D01*
X160738757Y-122511000D01*
X160981243Y-122511000D01*
X161219069Y-122463693D01*
X161443097Y-122370898D01*
X161644717Y-122236180D01*
X161816180Y-122064717D01*
X161950898Y-121863097D01*
X162043693Y-121639069D01*
X162091000Y-121401243D01*
X162091000Y-121158757D01*
X162169000Y-121158757D01*
X162169000Y-121401243D01*
X162216307Y-121639069D01*
X162309102Y-121863097D01*
X162443820Y-122064717D01*
X162615283Y-122236180D01*
X162816903Y-122370898D01*
X163040931Y-122463693D01*
X163278757Y-122511000D01*
X163521243Y-122511000D01*
X163759069Y-122463693D01*
X163983097Y-122370898D01*
X164184717Y-122236180D01*
X164356180Y-122064717D01*
X164490898Y-121863097D01*
X164583693Y-121639069D01*
X164631000Y-121401243D01*
X164631000Y-121158757D01*
X164583693Y-120920931D01*
X164490898Y-120696903D01*
X164356180Y-120495283D01*
X164184717Y-120323820D01*
X163983097Y-120189102D01*
X163759069Y-120096307D01*
X163521243Y-120049000D01*
X163278757Y-120049000D01*
X163040931Y-120096307D01*
X162816903Y-120189102D01*
X162615283Y-120323820D01*
X162443820Y-120495283D01*
X162309102Y-120696903D01*
X162216307Y-120920931D01*
X162169000Y-121158757D01*
X162091000Y-121158757D01*
X162043693Y-120920931D01*
X161950898Y-120696903D01*
X161816180Y-120495283D01*
X161644717Y-120323820D01*
X161443097Y-120189102D01*
X161219069Y-120096307D01*
X160981243Y-120049000D01*
X160738757Y-120049000D01*
X160500931Y-120096307D01*
X160276903Y-120189102D01*
X160075283Y-120323820D01*
X159903820Y-120495283D01*
X159769102Y-120696903D01*
X159676307Y-120920931D01*
X159629000Y-121158757D01*
X159551000Y-121158757D01*
X159503693Y-120920931D01*
X159410898Y-120696903D01*
X159276180Y-120495283D01*
X159104717Y-120323820D01*
X158903097Y-120189102D01*
X158679069Y-120096307D01*
X158441243Y-120049000D01*
X158198757Y-120049000D01*
X157960931Y-120096307D01*
X157736903Y-120189102D01*
X157535283Y-120323820D01*
X157363820Y-120495283D01*
X157229102Y-120696903D01*
X157136307Y-120920931D01*
X157089000Y-121158757D01*
X157011000Y-121158757D01*
X156963693Y-120920931D01*
X156870898Y-120696903D01*
X156736180Y-120495283D01*
X156564717Y-120323820D01*
X156363097Y-120189102D01*
X156139069Y-120096307D01*
X155901243Y-120049000D01*
X155658757Y-120049000D01*
X155420931Y-120096307D01*
X155196903Y-120189102D01*
X154995283Y-120323820D01*
X154823820Y-120495283D01*
X154689102Y-120696903D01*
X154596307Y-120920931D01*
X154549000Y-121158757D01*
X154471000Y-121158757D01*
X154423693Y-120920931D01*
X154330898Y-120696903D01*
X154196180Y-120495283D01*
X154024717Y-120323820D01*
X153823097Y-120189102D01*
X153599069Y-120096307D01*
X153361243Y-120049000D01*
X153118757Y-120049000D01*
X152880931Y-120096307D01*
X152656903Y-120189102D01*
X152455283Y-120323820D01*
X152283820Y-120495283D01*
X152149102Y-120696903D01*
X152056307Y-120920931D01*
X152009000Y-121158757D01*
X151932843Y-121158757D01*
X151932843Y-120430000D01*
X151925487Y-120355311D01*
X151903701Y-120283492D01*
X151868322Y-120217304D01*
X151820711Y-120159289D01*
X151762696Y-120111678D01*
X151696508Y-120076299D01*
X151624689Y-120054513D01*
X151550000Y-120047157D01*
X149850000Y-120047157D01*
X149775311Y-120054513D01*
X149703492Y-120076299D01*
X149637304Y-120111678D01*
X149579289Y-120159289D01*
X149531678Y-120217304D01*
X149496299Y-120283492D01*
X149474513Y-120355311D01*
X149467157Y-120430000D01*
X146520897Y-120430000D01*
X146404717Y-120313820D01*
X146203097Y-120179102D01*
X145979069Y-120086307D01*
X145741243Y-120039000D01*
X145498757Y-120039000D01*
X145260931Y-120086307D01*
X145036903Y-120179102D01*
X144835283Y-120313820D01*
X144663820Y-120485283D01*
X144529102Y-120686903D01*
X144481772Y-120801168D01*
X144424157Y-120638748D01*
X144275178Y-120388645D01*
X144080269Y-120172412D01*
X143846920Y-119998359D01*
X143584099Y-119873175D01*
X143436890Y-119828524D01*
X143207000Y-119949845D01*
X142953000Y-119949845D01*
X142723110Y-119828524D01*
X142575901Y-119873175D01*
X142313080Y-119998359D01*
X142079731Y-120172412D01*
X141884822Y-120388645D01*
X141810000Y-120514255D01*
X141735178Y-120388645D01*
X141540269Y-120172412D01*
X141306920Y-119998359D01*
X141044099Y-119873175D01*
X140896890Y-119828524D01*
X140667000Y-119949845D01*
X140413000Y-119949845D01*
X140183110Y-119828524D01*
X140035901Y-119873175D01*
X139773080Y-119998359D01*
X139539731Y-120172412D01*
X139344822Y-120388645D01*
X139195843Y-120638748D01*
X139138228Y-120801168D01*
X139090898Y-120686903D01*
X138956180Y-120485283D01*
X138784717Y-120313820D01*
X138583097Y-120179102D01*
X138359069Y-120086307D01*
X138121243Y-120039000D01*
X137878757Y-120039000D01*
X137640931Y-120086307D01*
X137416903Y-120179102D01*
X137215283Y-120313820D01*
X137043820Y-120485283D01*
X136909102Y-120686903D01*
X136816307Y-120910931D01*
X136769000Y-121148757D01*
X136691000Y-121148757D01*
X136643693Y-120910931D01*
X136550898Y-120686903D01*
X136416180Y-120485283D01*
X136244717Y-120313820D01*
X136043097Y-120179102D01*
X135819069Y-120086307D01*
X135581243Y-120039000D01*
X135338757Y-120039000D01*
X135100931Y-120086307D01*
X134876903Y-120179102D01*
X134675283Y-120313820D01*
X134503820Y-120485283D01*
X134369102Y-120686903D01*
X134276307Y-120910931D01*
X134229000Y-121148757D01*
X134151000Y-121148757D01*
X134103693Y-120910931D01*
X134010898Y-120686903D01*
X133876180Y-120485283D01*
X133704717Y-120313820D01*
X133503097Y-120179102D01*
X133279069Y-120086307D01*
X133041243Y-120039000D01*
X132798757Y-120039000D01*
X132560931Y-120086307D01*
X132336903Y-120179102D01*
X132135283Y-120313820D01*
X131963820Y-120485283D01*
X131829102Y-120686903D01*
X131736307Y-120910931D01*
X131689000Y-121148757D01*
X131611000Y-121148757D01*
X131563693Y-120910931D01*
X131470898Y-120686903D01*
X131336180Y-120485283D01*
X131164717Y-120313820D01*
X130963097Y-120179102D01*
X130739069Y-120086307D01*
X130501243Y-120039000D01*
X130258757Y-120039000D01*
X130020931Y-120086307D01*
X129796903Y-120179102D01*
X129595283Y-120313820D01*
X129423820Y-120485283D01*
X129289102Y-120686903D01*
X129196307Y-120910931D01*
X129149000Y-121148757D01*
X129072843Y-121148757D01*
X129072843Y-120420000D01*
X129065487Y-120345311D01*
X129043701Y-120273492D01*
X129008322Y-120207304D01*
X128960711Y-120149289D01*
X128902696Y-120101678D01*
X128836508Y-120066299D01*
X128764689Y-120044513D01*
X128690000Y-120037157D01*
X126990000Y-120037157D01*
X126915311Y-120044513D01*
X126843492Y-120066299D01*
X126777304Y-120101678D01*
X126719289Y-120149289D01*
X126671678Y-120207304D01*
X126636299Y-120273492D01*
X126614513Y-120345311D01*
X126607157Y-120420000D01*
X115657995Y-120420000D01*
X115625539Y-120341645D01*
X115408743Y-120017186D01*
X115132814Y-119741257D01*
X114808355Y-119524461D01*
X114447836Y-119375129D01*
X114065111Y-119299000D01*
X113674889Y-119299000D01*
X113292164Y-119375129D01*
X112931645Y-119524461D01*
X112607186Y-119741257D01*
X112331257Y-120017186D01*
X112114461Y-120341645D01*
X111965129Y-120702164D01*
X111889000Y-121084889D01*
X100306000Y-121084889D01*
X100306000Y-116004889D01*
X163959000Y-116004889D01*
X163959000Y-116395111D01*
X164035129Y-116777836D01*
X164184461Y-117138355D01*
X164401257Y-117462814D01*
X164677186Y-117738743D01*
X165001645Y-117955539D01*
X165362164Y-118104871D01*
X165744889Y-118181000D01*
X166135111Y-118181000D01*
X166517836Y-118104871D01*
X166878355Y-117955539D01*
X167202814Y-117738743D01*
X167478743Y-117462814D01*
X167695539Y-117138355D01*
X167844871Y-116777836D01*
X167921000Y-116395111D01*
X167921000Y-116004889D01*
X167844871Y-115622164D01*
X167695539Y-115261645D01*
X167478743Y-114937186D01*
X167202814Y-114661257D01*
X166878355Y-114444461D01*
X166517836Y-114295129D01*
X166135111Y-114219000D01*
X165744889Y-114219000D01*
X165362164Y-114295129D01*
X165001645Y-114444461D01*
X164677186Y-114661257D01*
X164401257Y-114937186D01*
X164184461Y-115261645D01*
X164035129Y-115622164D01*
X163959000Y-116004889D01*
X100306000Y-116004889D01*
X100306000Y-100173078D01*
X148419000Y-100173078D01*
X148419000Y-100326922D01*
X148449013Y-100477809D01*
X148507887Y-100619942D01*
X148593358Y-100747859D01*
X148702141Y-100856642D01*
X148704001Y-100857885D01*
X148704000Y-102221499D01*
X148603358Y-102322141D01*
X148517887Y-102450058D01*
X148459013Y-102592191D01*
X148429000Y-102743078D01*
X148429000Y-102896922D01*
X148459013Y-103047809D01*
X148517887Y-103189942D01*
X148603358Y-103317859D01*
X148712141Y-103426642D01*
X148840058Y-103512113D01*
X148982191Y-103570987D01*
X149133078Y-103601000D01*
X149286922Y-103601000D01*
X149437809Y-103570987D01*
X149579942Y-103512113D01*
X149707859Y-103426642D01*
X149816642Y-103317859D01*
X149902113Y-103189942D01*
X149960987Y-103047809D01*
X149991000Y-102896922D01*
X149991000Y-102743078D01*
X149960987Y-102592191D01*
X149902113Y-102450058D01*
X149816642Y-102322141D01*
X149716000Y-102221499D01*
X149716000Y-100838501D01*
X149806642Y-100747859D01*
X149892113Y-100619942D01*
X149950987Y-100477809D01*
X149981000Y-100326922D01*
X149981000Y-100173078D01*
X149950987Y-100022191D01*
X149892113Y-99880058D01*
X149806642Y-99752141D01*
X149697859Y-99643358D01*
X149569942Y-99557887D01*
X149427809Y-99499013D01*
X149276922Y-99469000D01*
X149123078Y-99469000D01*
X148972191Y-99499013D01*
X148830058Y-99557887D01*
X148702141Y-99643358D01*
X148593358Y-99752141D01*
X148507887Y-99880058D01*
X148449013Y-100022191D01*
X148419000Y-100173078D01*
X100306000Y-100173078D01*
X100306000Y-88064889D01*
X163959000Y-88064889D01*
X163959000Y-88455111D01*
X164035129Y-88837836D01*
X164184461Y-89198355D01*
X164401257Y-89522814D01*
X164677186Y-89798743D01*
X165001645Y-90015539D01*
X165362164Y-90164871D01*
X165744889Y-90241000D01*
X166135111Y-90241000D01*
X166517836Y-90164871D01*
X166878355Y-90015539D01*
X167202814Y-89798743D01*
X167478743Y-89522814D01*
X167695539Y-89198355D01*
X167844871Y-88837836D01*
X167921000Y-88455111D01*
X167921000Y-88064889D01*
X167844871Y-87682164D01*
X167695539Y-87321645D01*
X167478743Y-86997186D01*
X167202814Y-86721257D01*
X166878355Y-86504461D01*
X166517836Y-86355129D01*
X166135111Y-86279000D01*
X165744889Y-86279000D01*
X165362164Y-86355129D01*
X165001645Y-86504461D01*
X164677186Y-86721257D01*
X164401257Y-86997186D01*
X164184461Y-87321645D01*
X164035129Y-87682164D01*
X163959000Y-88064889D01*
X100306000Y-88064889D01*
X100306000Y-72824889D01*
X113159000Y-72824889D01*
X113159000Y-73215111D01*
X113235129Y-73597836D01*
X113384461Y-73958355D01*
X113601257Y-74282814D01*
X113877186Y-74558743D01*
X114201645Y-74775539D01*
X114562164Y-74924871D01*
X114944889Y-75001000D01*
X115335111Y-75001000D01*
X115717836Y-74924871D01*
X116078355Y-74775539D01*
X116402814Y-74558743D01*
X116678743Y-74282814D01*
X116895539Y-73958355D01*
X117044871Y-73597836D01*
X117121000Y-73215111D01*
X117121000Y-72908757D01*
X117469000Y-72908757D01*
X117469000Y-73151243D01*
X117516307Y-73389069D01*
X117609102Y-73613097D01*
X117743820Y-73814717D01*
X117915283Y-73986180D01*
X118116903Y-74120898D01*
X118340931Y-74213693D01*
X118578757Y-74261000D01*
X118821243Y-74261000D01*
X119059069Y-74213693D01*
X119283097Y-74120898D01*
X119484717Y-73986180D01*
X119656180Y-73814717D01*
X119790898Y-73613097D01*
X119883693Y-73389069D01*
X119931000Y-73151243D01*
X119931000Y-72908757D01*
X120009000Y-72908757D01*
X120009000Y-73151243D01*
X120056307Y-73389069D01*
X120149102Y-73613097D01*
X120283820Y-73814717D01*
X120455283Y-73986180D01*
X120656903Y-74120898D01*
X120880931Y-74213693D01*
X121118757Y-74261000D01*
X121361243Y-74261000D01*
X121599069Y-74213693D01*
X121823097Y-74120898D01*
X122024717Y-73986180D01*
X122196180Y-73814717D01*
X122330898Y-73613097D01*
X122423693Y-73389069D01*
X122471000Y-73151243D01*
X122471000Y-72908757D01*
X122549000Y-72908757D01*
X122549000Y-73151243D01*
X122596307Y-73389069D01*
X122689102Y-73613097D01*
X122823820Y-73814717D01*
X122995283Y-73986180D01*
X123196903Y-74120898D01*
X123420931Y-74213693D01*
X123658757Y-74261000D01*
X123901243Y-74261000D01*
X124139069Y-74213693D01*
X124363097Y-74120898D01*
X124564717Y-73986180D01*
X124736180Y-73814717D01*
X124870898Y-73613097D01*
X124918228Y-73498832D01*
X124975843Y-73661252D01*
X125124822Y-73911355D01*
X125319731Y-74127588D01*
X125553080Y-74301641D01*
X125815901Y-74426825D01*
X125963110Y-74471476D01*
X126193000Y-74350155D01*
X126193000Y-73157000D01*
X126173000Y-73157000D01*
X126173000Y-72903000D01*
X126193000Y-72903000D01*
X126193000Y-71709845D01*
X126447000Y-71709845D01*
X126447000Y-72903000D01*
X126467000Y-72903000D01*
X126467000Y-73157000D01*
X126447000Y-73157000D01*
X126447000Y-74350155D01*
X126676890Y-74471476D01*
X126824099Y-74426825D01*
X127086920Y-74301641D01*
X127320269Y-74127588D01*
X127515178Y-73911355D01*
X127664157Y-73661252D01*
X127721772Y-73498832D01*
X127769102Y-73613097D01*
X127903820Y-73814717D01*
X128075283Y-73986180D01*
X128276903Y-74120898D01*
X128500931Y-74213693D01*
X128738757Y-74261000D01*
X128981243Y-74261000D01*
X129219069Y-74213693D01*
X129443097Y-74120898D01*
X129644717Y-73986180D01*
X129816180Y-73814717D01*
X129950898Y-73613097D01*
X130043693Y-73389069D01*
X130091000Y-73151243D01*
X130091000Y-72908757D01*
X130169000Y-72908757D01*
X130169000Y-73151243D01*
X130216307Y-73389069D01*
X130309102Y-73613097D01*
X130443820Y-73814717D01*
X130615283Y-73986180D01*
X130816903Y-74120898D01*
X131040931Y-74213693D01*
X131278757Y-74261000D01*
X131521243Y-74261000D01*
X131759069Y-74213693D01*
X131983097Y-74120898D01*
X132184717Y-73986180D01*
X132356180Y-73814717D01*
X132490898Y-73613097D01*
X132583693Y-73389069D01*
X132631000Y-73151243D01*
X132631000Y-72908757D01*
X132709000Y-72908757D01*
X132709000Y-73151243D01*
X132756307Y-73389069D01*
X132849102Y-73613097D01*
X132983820Y-73814717D01*
X133155283Y-73986180D01*
X133356903Y-74120898D01*
X133580931Y-74213693D01*
X133818757Y-74261000D01*
X134061243Y-74261000D01*
X134299069Y-74213693D01*
X134523097Y-74120898D01*
X134724717Y-73986180D01*
X134896180Y-73814717D01*
X135030898Y-73613097D01*
X135123693Y-73389069D01*
X135171000Y-73151243D01*
X135171000Y-72908757D01*
X135249000Y-72908757D01*
X135249000Y-73151243D01*
X135296307Y-73389069D01*
X135389102Y-73613097D01*
X135523820Y-73814717D01*
X135695283Y-73986180D01*
X135896903Y-74120898D01*
X136120931Y-74213693D01*
X136358757Y-74261000D01*
X136601243Y-74261000D01*
X136839069Y-74213693D01*
X137063097Y-74120898D01*
X137264717Y-73986180D01*
X137436180Y-73814717D01*
X137570898Y-73613097D01*
X137663693Y-73389069D01*
X137711000Y-73151243D01*
X137711000Y-72908757D01*
X137789000Y-72908757D01*
X137789000Y-73151243D01*
X137836307Y-73389069D01*
X137929102Y-73613097D01*
X138063820Y-73814717D01*
X138235283Y-73986180D01*
X138436903Y-74120898D01*
X138660931Y-74213693D01*
X138898757Y-74261000D01*
X139141243Y-74261000D01*
X139379069Y-74213693D01*
X139603097Y-74120898D01*
X139804717Y-73986180D01*
X139976180Y-73814717D01*
X140110898Y-73613097D01*
X140203693Y-73389069D01*
X140251000Y-73151243D01*
X140251000Y-72908757D01*
X140203693Y-72670931D01*
X140110898Y-72446903D01*
X139976180Y-72245283D01*
X139910897Y-72180000D01*
X140327157Y-72180000D01*
X140327157Y-73880000D01*
X140334513Y-73954689D01*
X140356299Y-74026508D01*
X140391678Y-74092696D01*
X140439289Y-74150711D01*
X140497304Y-74198322D01*
X140563492Y-74233701D01*
X140635311Y-74255487D01*
X140710000Y-74262843D01*
X142410000Y-74262843D01*
X142484689Y-74255487D01*
X142556508Y-74233701D01*
X142622696Y-74198322D01*
X142680711Y-74150711D01*
X142728322Y-74092696D01*
X142763701Y-74026508D01*
X142785487Y-73954689D01*
X142792843Y-73880000D01*
X142792843Y-72888757D01*
X144389000Y-72888757D01*
X144389000Y-73131243D01*
X144436307Y-73369069D01*
X144529102Y-73593097D01*
X144663820Y-73794717D01*
X144835283Y-73966180D01*
X145036903Y-74100898D01*
X145260931Y-74193693D01*
X145498757Y-74241000D01*
X145741243Y-74241000D01*
X145979069Y-74193693D01*
X146203097Y-74100898D01*
X146404717Y-73966180D01*
X146576180Y-73794717D01*
X146710898Y-73593097D01*
X146803693Y-73369069D01*
X146851000Y-73131243D01*
X146851000Y-72888757D01*
X146929000Y-72888757D01*
X146929000Y-73131243D01*
X146976307Y-73369069D01*
X147069102Y-73593097D01*
X147203820Y-73794717D01*
X147375283Y-73966180D01*
X147576903Y-74100898D01*
X147800931Y-74193693D01*
X148038757Y-74241000D01*
X148281243Y-74241000D01*
X148519069Y-74193693D01*
X148743097Y-74100898D01*
X148944717Y-73966180D01*
X149116180Y-73794717D01*
X149250898Y-73593097D01*
X149343693Y-73369069D01*
X149391000Y-73131243D01*
X149391000Y-72888757D01*
X149469000Y-72888757D01*
X149469000Y-73131243D01*
X149516307Y-73369069D01*
X149609102Y-73593097D01*
X149743820Y-73794717D01*
X149915283Y-73966180D01*
X150116903Y-74100898D01*
X150340931Y-74193693D01*
X150578757Y-74241000D01*
X150821243Y-74241000D01*
X151059069Y-74193693D01*
X151283097Y-74100898D01*
X151484717Y-73966180D01*
X151656180Y-73794717D01*
X151790898Y-73593097D01*
X151883693Y-73369069D01*
X151931000Y-73131243D01*
X151931000Y-72888757D01*
X152009000Y-72888757D01*
X152009000Y-73131243D01*
X152056307Y-73369069D01*
X152149102Y-73593097D01*
X152283820Y-73794717D01*
X152455283Y-73966180D01*
X152656903Y-74100898D01*
X152880931Y-74193693D01*
X153118757Y-74241000D01*
X153361243Y-74241000D01*
X153599069Y-74193693D01*
X153823097Y-74100898D01*
X154024717Y-73966180D01*
X154196180Y-73794717D01*
X154330898Y-73593097D01*
X154423693Y-73369069D01*
X154471000Y-73131243D01*
X154471000Y-72888757D01*
X154549000Y-72888757D01*
X154549000Y-73131243D01*
X154596307Y-73369069D01*
X154689102Y-73593097D01*
X154823820Y-73794717D01*
X154995283Y-73966180D01*
X155196903Y-74100898D01*
X155420931Y-74193693D01*
X155658757Y-74241000D01*
X155901243Y-74241000D01*
X156139069Y-74193693D01*
X156363097Y-74100898D01*
X156564717Y-73966180D01*
X156736180Y-73794717D01*
X156870898Y-73593097D01*
X156963693Y-73369069D01*
X157011000Y-73131243D01*
X157011000Y-72888757D01*
X157089000Y-72888757D01*
X157089000Y-73131243D01*
X157136307Y-73369069D01*
X157229102Y-73593097D01*
X157363820Y-73794717D01*
X157535283Y-73966180D01*
X157736903Y-74100898D01*
X157960931Y-74193693D01*
X158198757Y-74241000D01*
X158441243Y-74241000D01*
X158679069Y-74193693D01*
X158903097Y-74100898D01*
X159104717Y-73966180D01*
X159276180Y-73794717D01*
X159410898Y-73593097D01*
X159503693Y-73369069D01*
X159551000Y-73131243D01*
X159551000Y-72888757D01*
X159629000Y-72888757D01*
X159629000Y-73131243D01*
X159676307Y-73369069D01*
X159769102Y-73593097D01*
X159903820Y-73794717D01*
X160075283Y-73966180D01*
X160276903Y-74100898D01*
X160500931Y-74193693D01*
X160738757Y-74241000D01*
X160981243Y-74241000D01*
X161219069Y-74193693D01*
X161443097Y-74100898D01*
X161644717Y-73966180D01*
X161816180Y-73794717D01*
X161950898Y-73593097D01*
X162043693Y-73369069D01*
X162091000Y-73131243D01*
X162091000Y-72888757D01*
X162043693Y-72650931D01*
X161950898Y-72426903D01*
X161816180Y-72225283D01*
X161750897Y-72160000D01*
X162167157Y-72160000D01*
X162167157Y-73860000D01*
X162174513Y-73934689D01*
X162196299Y-74006508D01*
X162231678Y-74072696D01*
X162279289Y-74130711D01*
X162337304Y-74178322D01*
X162403492Y-74213701D01*
X162475311Y-74235487D01*
X162550000Y-74242843D01*
X164250000Y-74242843D01*
X164324689Y-74235487D01*
X164396508Y-74213701D01*
X164462696Y-74178322D01*
X164520711Y-74130711D01*
X164568322Y-74072696D01*
X164603701Y-74006508D01*
X164625487Y-73934689D01*
X164632843Y-73860000D01*
X164632843Y-72160000D01*
X164625487Y-72085311D01*
X164603701Y-72013492D01*
X164568322Y-71947304D01*
X164520711Y-71889289D01*
X164462696Y-71841678D01*
X164396508Y-71806299D01*
X164324689Y-71784513D01*
X164250000Y-71777157D01*
X162550000Y-71777157D01*
X162475311Y-71784513D01*
X162403492Y-71806299D01*
X162337304Y-71841678D01*
X162279289Y-71889289D01*
X162231678Y-71947304D01*
X162196299Y-72013492D01*
X162174513Y-72085311D01*
X162167157Y-72160000D01*
X161750897Y-72160000D01*
X161644717Y-72053820D01*
X161443097Y-71919102D01*
X161219069Y-71826307D01*
X160981243Y-71779000D01*
X160738757Y-71779000D01*
X160500931Y-71826307D01*
X160276903Y-71919102D01*
X160075283Y-72053820D01*
X159903820Y-72225283D01*
X159769102Y-72426903D01*
X159676307Y-72650931D01*
X159629000Y-72888757D01*
X159551000Y-72888757D01*
X159503693Y-72650931D01*
X159410898Y-72426903D01*
X159276180Y-72225283D01*
X159104717Y-72053820D01*
X158903097Y-71919102D01*
X158679069Y-71826307D01*
X158441243Y-71779000D01*
X158198757Y-71779000D01*
X157960931Y-71826307D01*
X157736903Y-71919102D01*
X157535283Y-72053820D01*
X157363820Y-72225283D01*
X157229102Y-72426903D01*
X157136307Y-72650931D01*
X157089000Y-72888757D01*
X157011000Y-72888757D01*
X156963693Y-72650931D01*
X156870898Y-72426903D01*
X156736180Y-72225283D01*
X156564717Y-72053820D01*
X156363097Y-71919102D01*
X156139069Y-71826307D01*
X155901243Y-71779000D01*
X155658757Y-71779000D01*
X155420931Y-71826307D01*
X155196903Y-71919102D01*
X154995283Y-72053820D01*
X154823820Y-72225283D01*
X154689102Y-72426903D01*
X154596307Y-72650931D01*
X154549000Y-72888757D01*
X154471000Y-72888757D01*
X154423693Y-72650931D01*
X154330898Y-72426903D01*
X154196180Y-72225283D01*
X154024717Y-72053820D01*
X153823097Y-71919102D01*
X153599069Y-71826307D01*
X153361243Y-71779000D01*
X153118757Y-71779000D01*
X152880931Y-71826307D01*
X152656903Y-71919102D01*
X152455283Y-72053820D01*
X152283820Y-72225283D01*
X152149102Y-72426903D01*
X152056307Y-72650931D01*
X152009000Y-72888757D01*
X151931000Y-72888757D01*
X151883693Y-72650931D01*
X151790898Y-72426903D01*
X151656180Y-72225283D01*
X151484717Y-72053820D01*
X151283097Y-71919102D01*
X151059069Y-71826307D01*
X150821243Y-71779000D01*
X150578757Y-71779000D01*
X150340931Y-71826307D01*
X150116903Y-71919102D01*
X149915283Y-72053820D01*
X149743820Y-72225283D01*
X149609102Y-72426903D01*
X149516307Y-72650931D01*
X149469000Y-72888757D01*
X149391000Y-72888757D01*
X149343693Y-72650931D01*
X149250898Y-72426903D01*
X149116180Y-72225283D01*
X148944717Y-72053820D01*
X148743097Y-71919102D01*
X148519069Y-71826307D01*
X148281243Y-71779000D01*
X148038757Y-71779000D01*
X147800931Y-71826307D01*
X147576903Y-71919102D01*
X147375283Y-72053820D01*
X147203820Y-72225283D01*
X147069102Y-72426903D01*
X146976307Y-72650931D01*
X146929000Y-72888757D01*
X146851000Y-72888757D01*
X146803693Y-72650931D01*
X146710898Y-72426903D01*
X146576180Y-72225283D01*
X146404717Y-72053820D01*
X146203097Y-71919102D01*
X145979069Y-71826307D01*
X145741243Y-71779000D01*
X145498757Y-71779000D01*
X145260931Y-71826307D01*
X145036903Y-71919102D01*
X144835283Y-72053820D01*
X144663820Y-72225283D01*
X144529102Y-72426903D01*
X144436307Y-72650931D01*
X144389000Y-72888757D01*
X142792843Y-72888757D01*
X142792843Y-72180000D01*
X142785487Y-72105311D01*
X142763701Y-72033492D01*
X142728322Y-71967304D01*
X142680711Y-71909289D01*
X142622696Y-71861678D01*
X142556508Y-71826299D01*
X142484689Y-71804513D01*
X142410000Y-71797157D01*
X140710000Y-71797157D01*
X140635311Y-71804513D01*
X140563492Y-71826299D01*
X140497304Y-71861678D01*
X140439289Y-71909289D01*
X140391678Y-71967304D01*
X140356299Y-72033492D01*
X140334513Y-72105311D01*
X140327157Y-72180000D01*
X139910897Y-72180000D01*
X139804717Y-72073820D01*
X139603097Y-71939102D01*
X139379069Y-71846307D01*
X139141243Y-71799000D01*
X138898757Y-71799000D01*
X138660931Y-71846307D01*
X138436903Y-71939102D01*
X138235283Y-72073820D01*
X138063820Y-72245283D01*
X137929102Y-72446903D01*
X137836307Y-72670931D01*
X137789000Y-72908757D01*
X137711000Y-72908757D01*
X137663693Y-72670931D01*
X137570898Y-72446903D01*
X137436180Y-72245283D01*
X137264717Y-72073820D01*
X137063097Y-71939102D01*
X136839069Y-71846307D01*
X136601243Y-71799000D01*
X136358757Y-71799000D01*
X136120931Y-71846307D01*
X135896903Y-71939102D01*
X135695283Y-72073820D01*
X135523820Y-72245283D01*
X135389102Y-72446903D01*
X135296307Y-72670931D01*
X135249000Y-72908757D01*
X135171000Y-72908757D01*
X135123693Y-72670931D01*
X135030898Y-72446903D01*
X134896180Y-72245283D01*
X134724717Y-72073820D01*
X134523097Y-71939102D01*
X134299069Y-71846307D01*
X134061243Y-71799000D01*
X133818757Y-71799000D01*
X133580931Y-71846307D01*
X133356903Y-71939102D01*
X133155283Y-72073820D01*
X132983820Y-72245283D01*
X132849102Y-72446903D01*
X132756307Y-72670931D01*
X132709000Y-72908757D01*
X132631000Y-72908757D01*
X132583693Y-72670931D01*
X132490898Y-72446903D01*
X132356180Y-72245283D01*
X132184717Y-72073820D01*
X131983097Y-71939102D01*
X131759069Y-71846307D01*
X131521243Y-71799000D01*
X131278757Y-71799000D01*
X131040931Y-71846307D01*
X130816903Y-71939102D01*
X130615283Y-72073820D01*
X130443820Y-72245283D01*
X130309102Y-72446903D01*
X130216307Y-72670931D01*
X130169000Y-72908757D01*
X130091000Y-72908757D01*
X130043693Y-72670931D01*
X129950898Y-72446903D01*
X129816180Y-72245283D01*
X129644717Y-72073820D01*
X129443097Y-71939102D01*
X129219069Y-71846307D01*
X128981243Y-71799000D01*
X128738757Y-71799000D01*
X128500931Y-71846307D01*
X128276903Y-71939102D01*
X128075283Y-72073820D01*
X127903820Y-72245283D01*
X127769102Y-72446903D01*
X127721772Y-72561168D01*
X127664157Y-72398748D01*
X127515178Y-72148645D01*
X127320269Y-71932412D01*
X127086920Y-71758359D01*
X126824099Y-71633175D01*
X126676890Y-71588524D01*
X126447000Y-71709845D01*
X126193000Y-71709845D01*
X125963110Y-71588524D01*
X125815901Y-71633175D01*
X125553080Y-71758359D01*
X125319731Y-71932412D01*
X125124822Y-72148645D01*
X124975843Y-72398748D01*
X124918228Y-72561168D01*
X124870898Y-72446903D01*
X124736180Y-72245283D01*
X124564717Y-72073820D01*
X124363097Y-71939102D01*
X124139069Y-71846307D01*
X123901243Y-71799000D01*
X123658757Y-71799000D01*
X123420931Y-71846307D01*
X123196903Y-71939102D01*
X122995283Y-72073820D01*
X122823820Y-72245283D01*
X122689102Y-72446903D01*
X122596307Y-72670931D01*
X122549000Y-72908757D01*
X122471000Y-72908757D01*
X122423693Y-72670931D01*
X122330898Y-72446903D01*
X122196180Y-72245283D01*
X122024717Y-72073820D01*
X121823097Y-71939102D01*
X121599069Y-71846307D01*
X121361243Y-71799000D01*
X121118757Y-71799000D01*
X120880931Y-71846307D01*
X120656903Y-71939102D01*
X120455283Y-72073820D01*
X120283820Y-72245283D01*
X120149102Y-72446903D01*
X120056307Y-72670931D01*
X120009000Y-72908757D01*
X119931000Y-72908757D01*
X119883693Y-72670931D01*
X119790898Y-72446903D01*
X119656180Y-72245283D01*
X119484717Y-72073820D01*
X119283097Y-71939102D01*
X119059069Y-71846307D01*
X118821243Y-71799000D01*
X118578757Y-71799000D01*
X118340931Y-71846307D01*
X118116903Y-71939102D01*
X117915283Y-72073820D01*
X117743820Y-72245283D01*
X117609102Y-72446903D01*
X117516307Y-72670931D01*
X117469000Y-72908757D01*
X117121000Y-72908757D01*
X117121000Y-72824889D01*
X117044871Y-72442164D01*
X116895539Y-72081645D01*
X116678743Y-71757186D01*
X116402814Y-71481257D01*
X116078355Y-71264461D01*
X115717836Y-71115129D01*
X115335111Y-71039000D01*
X114944889Y-71039000D01*
X114562164Y-71115129D01*
X114201645Y-71264461D01*
X113877186Y-71481257D01*
X113601257Y-71757186D01*
X113384461Y-72081645D01*
X113235129Y-72442164D01*
X113159000Y-72824889D01*
X100306000Y-72824889D01*
X100306000Y-70886000D01*
X164251831Y-70886000D01*
X165534001Y-72168171D01*
%TD*%
M02*
