%TF.GenerationSoftware,KiCad,Pcbnew,5.1.6-c6e7f7d~87~ubuntu19.10.1*%
%TF.CreationDate,2020-08-28T21:10:44+02:00*%
%TF.ProjectId,zephyr-ci-shield,7a657068-7972-42d6-9369-2d736869656c,1*%
%TF.SameCoordinates,Original*%
%TF.FileFunction,Legend,Bot*%
%TF.FilePolarity,Positive*%
%FSLAX46Y46*%
G04 Gerber Fmt 4.6, Leading zero omitted, Abs format (unit mm)*
G04 Created by KiCad (PCBNEW 5.1.6-c6e7f7d~87~ubuntu19.10.1) date 2020-08-28 21:10:44*
%MOMM*%
%LPD*%
G01*
G04 APERTURE LIST*
%ADD10C,0.120000*%
G04 APERTURE END LIST*
D10*
%TO.C,J4*%
X142890000Y-74360000D02*
X142890000Y-73030000D01*
X141560000Y-74360000D02*
X142890000Y-74360000D01*
X140290000Y-74360000D02*
X140290000Y-71700000D01*
X140290000Y-71700000D02*
X117370000Y-71700000D01*
X140290000Y-74360000D02*
X117370000Y-74360000D01*
X117370000Y-74360000D02*
X117370000Y-71700000D01*
%TO.C,J3*%
X149370000Y-119950000D02*
X149370000Y-121280000D01*
X150700000Y-119950000D02*
X149370000Y-119950000D01*
X151970000Y-119950000D02*
X151970000Y-122610000D01*
X151970000Y-122610000D02*
X164730000Y-122610000D01*
X151970000Y-119950000D02*
X164730000Y-119950000D01*
X164730000Y-119950000D02*
X164730000Y-122610000D01*
%TO.C,J2*%
X126510000Y-119940000D02*
X126510000Y-121270000D01*
X127840000Y-119940000D02*
X126510000Y-119940000D01*
X129110000Y-119940000D02*
X129110000Y-122600000D01*
X129110000Y-122600000D02*
X146950000Y-122600000D01*
X129110000Y-119940000D02*
X146950000Y-119940000D01*
X146950000Y-119940000D02*
X146950000Y-122600000D01*
%TO.C,J5*%
X164730000Y-74340000D02*
X164730000Y-73010000D01*
X163400000Y-74340000D02*
X164730000Y-74340000D01*
X162130000Y-74340000D02*
X162130000Y-71680000D01*
X162130000Y-71680000D02*
X144290000Y-71680000D01*
X162130000Y-74340000D02*
X144290000Y-74340000D01*
X144290000Y-74340000D02*
X144290000Y-71680000D01*
%TD*%
M02*
