M48
; DRILL file {KiCad 5.1.6-c6e7f7d~87~ubuntu19.10.1} date Fri Aug 28 21:10:47 2020
; FORMAT={-:-/ absolute / inch / decimal}
; #@! TF.CreationDate,2020-08-28T21:10:47+02:00
; #@! TF.GenerationSoftware,Kicad,Pcbnew,5.1.6-c6e7f7d~87~ubuntu19.10.1
; #@! TF.FileFunction,Plated,1,2,PTH
FMAT,2
INCH
T1C0.0157
T2C0.0394
%
G90
G05
T1
X4.0108Y-2.8371
X4.0108Y-3.1127
X4.0108Y-3.3883
X4.0108Y-3.6639
X4.0108Y-3.9395
X4.0108Y-4.2151
X4.0108Y-4.4906
X4.0108Y-4.7662
X4.1683Y-2.9552
X4.1683Y-3.2308
X4.1683Y-3.5064
X4.1683Y-3.782
X4.1683Y-4.0576
X4.1683Y-4.3332
X4.1683Y-4.6088
X4.247Y-4.8056
X4.3258Y-2.8371
X4.3258Y-3.1127
X4.3258Y-3.3883
X4.3258Y-3.6639
X4.3258Y-3.9395
X4.3258Y-4.2151
X4.3258Y-4.4906
X4.4045Y-4.6875
X4.4833Y-2.9946
X4.4833Y-3.2702
X4.4833Y-3.5458
X4.4833Y-3.8214
X4.4833Y-4.0969
X4.4833Y-4.3725
X4.562Y-4.5694
X4.6014Y-4.8056
X4.6407Y-3.1127
X4.6407Y-3.3883
X4.7195Y-3.782
X4.7195Y-4.2151
X4.7589Y-4.6481
X4.7776Y-3.7862
X4.7982Y-3.9788
X4.8102Y-3.5421
X4.8376Y-2.9552
X4.8376Y-3.2308
X4.8776Y-4.0512
X4.878Y-4.265
X4.9163Y-3.4277
X4.9557Y-3.6639
X4.9557Y-4.53
X4.9557Y-4.8056
X4.9951Y-3.0733
X5.0344Y-3.8607
X5.0344Y-4.1363
X5.0738Y-4.3725
X5.1132Y-3.2308
X5.1132Y-3.5064
X5.1132Y-4.6481
X5.1919Y-3.7032
X5.1919Y-3.9788
X5.2313Y-2.9552
X5.2313Y-4.2151
X5.2707Y-4.53
X5.3494Y-3.8214
X5.3888Y-4.0576
X5.3888Y-4.3332
X5.3888Y-4.6875
X5.4281Y-3.034
X5.4675Y-3.2702
X5.5069Y-4.4906
X5.5463Y-3.9001
X5.5463Y-4.1757
X5.5856Y-3.4277
X5.625Y-2.9552
X5.625Y-4.6481
X5.6644Y-3.1914
X5.6644Y-4.3332
X5.7037Y-4.0182
X5.7431Y-3.5458
X5.7825Y-4.4906
X5.7929Y-4.1217
X5.8219Y-3.3095
X5.8219Y-4.7269
X5.8612Y-3.7032
X5.8612Y-4.2544
X5.874Y-3.9469
X5.8744Y-4.048
X5.9006Y-2.9552
X5.94Y-3.467
X5.9793Y-4.5694
X6.0083Y-4.0327
X6.0187Y-3.2308
X6.0187Y-3.8214
X6.0581Y-4.3332
X6.0974Y-3.034
X6.0974Y-3.5851
X6.0974Y-4.0182
X6.1762Y-3.3489
X6.1762Y-4.6481
X6.2156Y-3.7426
X6.2943Y-2.9552
X6.2943Y-3.5064
X6.2943Y-3.9395
X6.3337Y-3.1914
X6.3337Y-4.3332
X6.373Y-4.5694
X6.4124Y-3.6639
X6.4124Y-4.0969
X6.4518Y-3.3489
X6.4911Y-3.034
X6.4911Y-3.8607
X6.5305Y-4.2544
X6.5305Y-4.6875
T2
X5.7331Y-2.8744
X5.8331Y-2.8744
X5.9331Y-2.8744
X6.0331Y-2.8744
X6.1331Y-2.8744
X6.2331Y-2.8744
X6.3331Y-2.8744
X6.4331Y-2.8744
X5.9331Y-4.7748
X6.0331Y-4.7748
X6.1331Y-4.7748
X6.2331Y-4.7748
X6.3331Y-4.7748
X6.4331Y-4.7748
X5.0331Y-4.7744
X5.1331Y-4.7744
X5.2331Y-4.7744
X5.3331Y-4.7744
X5.4331Y-4.7744
X5.5331Y-4.7744
X5.6331Y-4.7744
X5.7331Y-4.7744
X4.6732Y-2.8752
X4.7732Y-2.8752
X4.8732Y-2.8752
X4.9732Y-2.8752
X5.0732Y-2.8752
X5.1732Y-2.8752
X5.2732Y-2.8752
X5.3732Y-2.8752
X5.4732Y-2.8752
X5.5732Y-2.8752
T0
M30
