%TF.GenerationSoftware,KiCad,Pcbnew,5.1.6-c6e7f7d~87~ubuntu19.10.1*%
%TF.CreationDate,2020-08-28T21:10:44+02:00*%
%TF.ProjectId,zephyr-ci-shield,7a657068-7972-42d6-9369-2d736869656c,1*%
%TF.SameCoordinates,Original*%
%TF.FileFunction,Paste,Top*%
%TF.FilePolarity,Positive*%
%FSLAX46Y46*%
G04 Gerber Fmt 4.6, Leading zero omitted, Abs format (unit mm)*
G04 Created by KiCad (PCBNEW 5.1.6-c6e7f7d~87~ubuntu19.10.1) date 2020-08-28 21:10:44*
%MOMM*%
%LPD*%
G01*
G04 APERTURE LIST*
%ADD10R,1.900000X1.300000*%
%ADD11R,2.800000X1.000000*%
%ADD12R,0.800000X1.000000*%
%ADD13R,1.200000X1.000000*%
%ADD14R,1.200000X0.700000*%
%ADD15R,1.000000X1.700000*%
G04 APERTURE END LIST*
D10*
%TO.C,J1*%
X166255000Y-93045000D03*
D11*
X165805000Y-106545000D03*
D12*
X161655000Y-106545000D03*
D13*
X155455000Y-106545000D03*
X151155000Y-95395000D03*
D14*
X151155000Y-103545000D03*
X151155000Y-102445000D03*
X151155000Y-101345000D03*
X151155000Y-100245000D03*
X151155000Y-99145000D03*
X151155000Y-98045000D03*
X151155000Y-96945000D03*
X151155000Y-104645000D03*
X151155000Y-105595000D03*
%TD*%
%TO.C,U2*%
G36*
G01*
X120255000Y-95260000D02*
X119955000Y-95260000D01*
G75*
G02*
X119805000Y-95110000I0J150000D01*
G01*
X119805000Y-93460000D01*
G75*
G02*
X119955000Y-93310000I150000J0D01*
G01*
X120255000Y-93310000D01*
G75*
G02*
X120405000Y-93460000I0J-150000D01*
G01*
X120405000Y-95110000D01*
G75*
G02*
X120255000Y-95260000I-150000J0D01*
G01*
G37*
G36*
G01*
X121525000Y-95260000D02*
X121225000Y-95260000D01*
G75*
G02*
X121075000Y-95110000I0J150000D01*
G01*
X121075000Y-93460000D01*
G75*
G02*
X121225000Y-93310000I150000J0D01*
G01*
X121525000Y-93310000D01*
G75*
G02*
X121675000Y-93460000I0J-150000D01*
G01*
X121675000Y-95110000D01*
G75*
G02*
X121525000Y-95260000I-150000J0D01*
G01*
G37*
G36*
G01*
X122795000Y-95260000D02*
X122495000Y-95260000D01*
G75*
G02*
X122345000Y-95110000I0J150000D01*
G01*
X122345000Y-93460000D01*
G75*
G02*
X122495000Y-93310000I150000J0D01*
G01*
X122795000Y-93310000D01*
G75*
G02*
X122945000Y-93460000I0J-150000D01*
G01*
X122945000Y-95110000D01*
G75*
G02*
X122795000Y-95260000I-150000J0D01*
G01*
G37*
G36*
G01*
X124065000Y-95260000D02*
X123765000Y-95260000D01*
G75*
G02*
X123615000Y-95110000I0J150000D01*
G01*
X123615000Y-93460000D01*
G75*
G02*
X123765000Y-93310000I150000J0D01*
G01*
X124065000Y-93310000D01*
G75*
G02*
X124215000Y-93460000I0J-150000D01*
G01*
X124215000Y-95110000D01*
G75*
G02*
X124065000Y-95260000I-150000J0D01*
G01*
G37*
G36*
G01*
X124065000Y-100210000D02*
X123765000Y-100210000D01*
G75*
G02*
X123615000Y-100060000I0J150000D01*
G01*
X123615000Y-98410000D01*
G75*
G02*
X123765000Y-98260000I150000J0D01*
G01*
X124065000Y-98260000D01*
G75*
G02*
X124215000Y-98410000I0J-150000D01*
G01*
X124215000Y-100060000D01*
G75*
G02*
X124065000Y-100210000I-150000J0D01*
G01*
G37*
G36*
G01*
X122795000Y-100210000D02*
X122495000Y-100210000D01*
G75*
G02*
X122345000Y-100060000I0J150000D01*
G01*
X122345000Y-98410000D01*
G75*
G02*
X122495000Y-98260000I150000J0D01*
G01*
X122795000Y-98260000D01*
G75*
G02*
X122945000Y-98410000I0J-150000D01*
G01*
X122945000Y-100060000D01*
G75*
G02*
X122795000Y-100210000I-150000J0D01*
G01*
G37*
G36*
G01*
X121525000Y-100210000D02*
X121225000Y-100210000D01*
G75*
G02*
X121075000Y-100060000I0J150000D01*
G01*
X121075000Y-98410000D01*
G75*
G02*
X121225000Y-98260000I150000J0D01*
G01*
X121525000Y-98260000D01*
G75*
G02*
X121675000Y-98410000I0J-150000D01*
G01*
X121675000Y-100060000D01*
G75*
G02*
X121525000Y-100210000I-150000J0D01*
G01*
G37*
G36*
G01*
X120255000Y-100210000D02*
X119955000Y-100210000D01*
G75*
G02*
X119805000Y-100060000I0J150000D01*
G01*
X119805000Y-98410000D01*
G75*
G02*
X119955000Y-98260000I150000J0D01*
G01*
X120255000Y-98260000D01*
G75*
G02*
X120405000Y-98410000I0J-150000D01*
G01*
X120405000Y-100060000D01*
G75*
G02*
X120255000Y-100210000I-150000J0D01*
G01*
G37*
%TD*%
%TO.C,U1*%
G36*
G01*
X120245000Y-106240000D02*
X119945000Y-106240000D01*
G75*
G02*
X119795000Y-106090000I0J150000D01*
G01*
X119795000Y-104440000D01*
G75*
G02*
X119945000Y-104290000I150000J0D01*
G01*
X120245000Y-104290000D01*
G75*
G02*
X120395000Y-104440000I0J-150000D01*
G01*
X120395000Y-106090000D01*
G75*
G02*
X120245000Y-106240000I-150000J0D01*
G01*
G37*
G36*
G01*
X121515000Y-106240000D02*
X121215000Y-106240000D01*
G75*
G02*
X121065000Y-106090000I0J150000D01*
G01*
X121065000Y-104440000D01*
G75*
G02*
X121215000Y-104290000I150000J0D01*
G01*
X121515000Y-104290000D01*
G75*
G02*
X121665000Y-104440000I0J-150000D01*
G01*
X121665000Y-106090000D01*
G75*
G02*
X121515000Y-106240000I-150000J0D01*
G01*
G37*
G36*
G01*
X122785000Y-106240000D02*
X122485000Y-106240000D01*
G75*
G02*
X122335000Y-106090000I0J150000D01*
G01*
X122335000Y-104440000D01*
G75*
G02*
X122485000Y-104290000I150000J0D01*
G01*
X122785000Y-104290000D01*
G75*
G02*
X122935000Y-104440000I0J-150000D01*
G01*
X122935000Y-106090000D01*
G75*
G02*
X122785000Y-106240000I-150000J0D01*
G01*
G37*
G36*
G01*
X124055000Y-106240000D02*
X123755000Y-106240000D01*
G75*
G02*
X123605000Y-106090000I0J150000D01*
G01*
X123605000Y-104440000D01*
G75*
G02*
X123755000Y-104290000I150000J0D01*
G01*
X124055000Y-104290000D01*
G75*
G02*
X124205000Y-104440000I0J-150000D01*
G01*
X124205000Y-106090000D01*
G75*
G02*
X124055000Y-106240000I-150000J0D01*
G01*
G37*
G36*
G01*
X124055000Y-111190000D02*
X123755000Y-111190000D01*
G75*
G02*
X123605000Y-111040000I0J150000D01*
G01*
X123605000Y-109390000D01*
G75*
G02*
X123755000Y-109240000I150000J0D01*
G01*
X124055000Y-109240000D01*
G75*
G02*
X124205000Y-109390000I0J-150000D01*
G01*
X124205000Y-111040000D01*
G75*
G02*
X124055000Y-111190000I-150000J0D01*
G01*
G37*
G36*
G01*
X122785000Y-111190000D02*
X122485000Y-111190000D01*
G75*
G02*
X122335000Y-111040000I0J150000D01*
G01*
X122335000Y-109390000D01*
G75*
G02*
X122485000Y-109240000I150000J0D01*
G01*
X122785000Y-109240000D01*
G75*
G02*
X122935000Y-109390000I0J-150000D01*
G01*
X122935000Y-111040000D01*
G75*
G02*
X122785000Y-111190000I-150000J0D01*
G01*
G37*
G36*
G01*
X121515000Y-111190000D02*
X121215000Y-111190000D01*
G75*
G02*
X121065000Y-111040000I0J150000D01*
G01*
X121065000Y-109390000D01*
G75*
G02*
X121215000Y-109240000I150000J0D01*
G01*
X121515000Y-109240000D01*
G75*
G02*
X121665000Y-109390000I0J-150000D01*
G01*
X121665000Y-111040000D01*
G75*
G02*
X121515000Y-111190000I-150000J0D01*
G01*
G37*
G36*
G01*
X120245000Y-111190000D02*
X119945000Y-111190000D01*
G75*
G02*
X119795000Y-111040000I0J150000D01*
G01*
X119795000Y-109390000D01*
G75*
G02*
X119945000Y-109240000I150000J0D01*
G01*
X120245000Y-109240000D01*
G75*
G02*
X120395000Y-109390000I0J-150000D01*
G01*
X120395000Y-111040000D01*
G75*
G02*
X120245000Y-111190000I-150000J0D01*
G01*
G37*
%TD*%
D15*
%TO.C,SW1*%
X120430000Y-121940000D03*
X120430000Y-115640000D03*
X124230000Y-121940000D03*
X124230000Y-115640000D03*
%TD*%
%TO.C,R12*%
G36*
G01*
X121820000Y-84069999D02*
X121820000Y-84970001D01*
G75*
G02*
X121570001Y-85220000I-249999J0D01*
G01*
X120919999Y-85220000D01*
G75*
G02*
X120670000Y-84970001I0J249999D01*
G01*
X120670000Y-84069999D01*
G75*
G02*
X120919999Y-83820000I249999J0D01*
G01*
X121570001Y-83820000D01*
G75*
G02*
X121820000Y-84069999I0J-249999D01*
G01*
G37*
G36*
G01*
X123870000Y-84069999D02*
X123870000Y-84970001D01*
G75*
G02*
X123620001Y-85220000I-249999J0D01*
G01*
X122969999Y-85220000D01*
G75*
G02*
X122720000Y-84970001I0J249999D01*
G01*
X122720000Y-84069999D01*
G75*
G02*
X122969999Y-83820000I249999J0D01*
G01*
X123620001Y-83820000D01*
G75*
G02*
X123870000Y-84069999I0J-249999D01*
G01*
G37*
%TD*%
%TO.C,R6*%
G36*
G01*
X162979999Y-112964000D02*
X163880001Y-112964000D01*
G75*
G02*
X164130000Y-113213999I0J-249999D01*
G01*
X164130000Y-113864001D01*
G75*
G02*
X163880001Y-114114000I-249999J0D01*
G01*
X162979999Y-114114000D01*
G75*
G02*
X162730000Y-113864001I0J249999D01*
G01*
X162730000Y-113213999D01*
G75*
G02*
X162979999Y-112964000I249999J0D01*
G01*
G37*
G36*
G01*
X162979999Y-110914000D02*
X163880001Y-110914000D01*
G75*
G02*
X164130000Y-111163999I0J-249999D01*
G01*
X164130000Y-111814001D01*
G75*
G02*
X163880001Y-112064000I-249999J0D01*
G01*
X162979999Y-112064000D01*
G75*
G02*
X162730000Y-111814001I0J249999D01*
G01*
X162730000Y-111163999D01*
G75*
G02*
X162979999Y-110914000I249999J0D01*
G01*
G37*
%TD*%
%TO.C,R5*%
G36*
G01*
X160437999Y-112958000D02*
X161338001Y-112958000D01*
G75*
G02*
X161588000Y-113207999I0J-249999D01*
G01*
X161588000Y-113858001D01*
G75*
G02*
X161338001Y-114108000I-249999J0D01*
G01*
X160437999Y-114108000D01*
G75*
G02*
X160188000Y-113858001I0J249999D01*
G01*
X160188000Y-113207999D01*
G75*
G02*
X160437999Y-112958000I249999J0D01*
G01*
G37*
G36*
G01*
X160437999Y-110908000D02*
X161338001Y-110908000D01*
G75*
G02*
X161588000Y-111157999I0J-249999D01*
G01*
X161588000Y-111808001D01*
G75*
G02*
X161338001Y-112058000I-249999J0D01*
G01*
X160437999Y-112058000D01*
G75*
G02*
X160188000Y-111808001I0J249999D01*
G01*
X160188000Y-111157999D01*
G75*
G02*
X160437999Y-110908000I249999J0D01*
G01*
G37*
%TD*%
%TO.C,R4*%
G36*
G01*
X157895999Y-112940000D02*
X158796001Y-112940000D01*
G75*
G02*
X159046000Y-113189999I0J-249999D01*
G01*
X159046000Y-113840001D01*
G75*
G02*
X158796001Y-114090000I-249999J0D01*
G01*
X157895999Y-114090000D01*
G75*
G02*
X157646000Y-113840001I0J249999D01*
G01*
X157646000Y-113189999D01*
G75*
G02*
X157895999Y-112940000I249999J0D01*
G01*
G37*
G36*
G01*
X157895999Y-110890000D02*
X158796001Y-110890000D01*
G75*
G02*
X159046000Y-111139999I0J-249999D01*
G01*
X159046000Y-111790001D01*
G75*
G02*
X158796001Y-112040000I-249999J0D01*
G01*
X157895999Y-112040000D01*
G75*
G02*
X157646000Y-111790001I0J249999D01*
G01*
X157646000Y-111139999D01*
G75*
G02*
X157895999Y-110890000I249999J0D01*
G01*
G37*
%TD*%
%TO.C,R3*%
G36*
G01*
X155353999Y-112946000D02*
X156254001Y-112946000D01*
G75*
G02*
X156504000Y-113195999I0J-249999D01*
G01*
X156504000Y-113846001D01*
G75*
G02*
X156254001Y-114096000I-249999J0D01*
G01*
X155353999Y-114096000D01*
G75*
G02*
X155104000Y-113846001I0J249999D01*
G01*
X155104000Y-113195999D01*
G75*
G02*
X155353999Y-112946000I249999J0D01*
G01*
G37*
G36*
G01*
X155353999Y-110896000D02*
X156254001Y-110896000D01*
G75*
G02*
X156504000Y-111145999I0J-249999D01*
G01*
X156504000Y-111796001D01*
G75*
G02*
X156254001Y-112046000I-249999J0D01*
G01*
X155353999Y-112046000D01*
G75*
G02*
X155104000Y-111796001I0J249999D01*
G01*
X155104000Y-111145999D01*
G75*
G02*
X155353999Y-110896000I249999J0D01*
G01*
G37*
%TD*%
%TO.C,R2*%
G36*
G01*
X152811999Y-112952000D02*
X153712001Y-112952000D01*
G75*
G02*
X153962000Y-113201999I0J-249999D01*
G01*
X153962000Y-113852001D01*
G75*
G02*
X153712001Y-114102000I-249999J0D01*
G01*
X152811999Y-114102000D01*
G75*
G02*
X152562000Y-113852001I0J249999D01*
G01*
X152562000Y-113201999D01*
G75*
G02*
X152811999Y-112952000I249999J0D01*
G01*
G37*
G36*
G01*
X152811999Y-110902000D02*
X153712001Y-110902000D01*
G75*
G02*
X153962000Y-111151999I0J-249999D01*
G01*
X153962000Y-111802001D01*
G75*
G02*
X153712001Y-112052000I-249999J0D01*
G01*
X152811999Y-112052000D01*
G75*
G02*
X152562000Y-111802001I0J249999D01*
G01*
X152562000Y-111151999D01*
G75*
G02*
X152811999Y-110902000I249999J0D01*
G01*
G37*
%TD*%
%TO.C,R1*%
G36*
G01*
X150269999Y-112970000D02*
X151170001Y-112970000D01*
G75*
G02*
X151420000Y-113219999I0J-249999D01*
G01*
X151420000Y-113870001D01*
G75*
G02*
X151170001Y-114120000I-249999J0D01*
G01*
X150269999Y-114120000D01*
G75*
G02*
X150020000Y-113870001I0J249999D01*
G01*
X150020000Y-113219999D01*
G75*
G02*
X150269999Y-112970000I249999J0D01*
G01*
G37*
G36*
G01*
X150269999Y-110920000D02*
X151170001Y-110920000D01*
G75*
G02*
X151420000Y-111169999I0J-249999D01*
G01*
X151420000Y-111820001D01*
G75*
G02*
X151170001Y-112070000I-249999J0D01*
G01*
X150269999Y-112070000D01*
G75*
G02*
X150020000Y-111820001I0J249999D01*
G01*
X150020000Y-111169999D01*
G75*
G02*
X150269999Y-110920000I249999J0D01*
G01*
G37*
%TD*%
%TO.C,R11*%
G36*
G01*
X118130000Y-85010001D02*
X118130000Y-84109999D01*
G75*
G02*
X118379999Y-83860000I249999J0D01*
G01*
X119030001Y-83860000D01*
G75*
G02*
X119280000Y-84109999I0J-249999D01*
G01*
X119280000Y-85010001D01*
G75*
G02*
X119030001Y-85260000I-249999J0D01*
G01*
X118379999Y-85260000D01*
G75*
G02*
X118130000Y-85010001I0J249999D01*
G01*
G37*
G36*
G01*
X116080000Y-85010001D02*
X116080000Y-84109999D01*
G75*
G02*
X116329999Y-83860000I249999J0D01*
G01*
X116980001Y-83860000D01*
G75*
G02*
X117230000Y-84109999I0J-249999D01*
G01*
X117230000Y-85010001D01*
G75*
G02*
X116980001Y-85260000I-249999J0D01*
G01*
X116329999Y-85260000D01*
G75*
G02*
X116080000Y-85010001I0J249999D01*
G01*
G37*
%TD*%
%TO.C,R7*%
G36*
G01*
X139840000Y-79959999D02*
X139840000Y-80860001D01*
G75*
G02*
X139590001Y-81110000I-249999J0D01*
G01*
X138939999Y-81110000D01*
G75*
G02*
X138690000Y-80860001I0J249999D01*
G01*
X138690000Y-79959999D01*
G75*
G02*
X138939999Y-79710000I249999J0D01*
G01*
X139590001Y-79710000D01*
G75*
G02*
X139840000Y-79959999I0J-249999D01*
G01*
G37*
G36*
G01*
X141890000Y-79959999D02*
X141890000Y-80860001D01*
G75*
G02*
X141640001Y-81110000I-249999J0D01*
G01*
X140989999Y-81110000D01*
G75*
G02*
X140740000Y-80860001I0J249999D01*
G01*
X140740000Y-79959999D01*
G75*
G02*
X140989999Y-79710000I249999J0D01*
G01*
X141640001Y-79710000D01*
G75*
G02*
X141890000Y-79959999I0J-249999D01*
G01*
G37*
%TD*%
%TO.C,R8*%
G36*
G01*
X146300000Y-79939999D02*
X146300000Y-80840001D01*
G75*
G02*
X146050001Y-81090000I-249999J0D01*
G01*
X145399999Y-81090000D01*
G75*
G02*
X145150000Y-80840001I0J249999D01*
G01*
X145150000Y-79939999D01*
G75*
G02*
X145399999Y-79690000I249999J0D01*
G01*
X146050001Y-79690000D01*
G75*
G02*
X146300000Y-79939999I0J-249999D01*
G01*
G37*
G36*
G01*
X148350000Y-79939999D02*
X148350000Y-80840001D01*
G75*
G02*
X148100001Y-81090000I-249999J0D01*
G01*
X147449999Y-81090000D01*
G75*
G02*
X147200000Y-80840001I0J249999D01*
G01*
X147200000Y-79939999D01*
G75*
G02*
X147449999Y-79690000I249999J0D01*
G01*
X148100001Y-79690000D01*
G75*
G02*
X148350000Y-79939999I0J-249999D01*
G01*
G37*
%TD*%
%TO.C,R9*%
G36*
G01*
X151475000Y-79939999D02*
X151475000Y-80840001D01*
G75*
G02*
X151225001Y-81090000I-249999J0D01*
G01*
X150574999Y-81090000D01*
G75*
G02*
X150325000Y-80840001I0J249999D01*
G01*
X150325000Y-79939999D01*
G75*
G02*
X150574999Y-79690000I249999J0D01*
G01*
X151225001Y-79690000D01*
G75*
G02*
X151475000Y-79939999I0J-249999D01*
G01*
G37*
G36*
G01*
X153525000Y-79939999D02*
X153525000Y-80840001D01*
G75*
G02*
X153275001Y-81090000I-249999J0D01*
G01*
X152624999Y-81090000D01*
G75*
G02*
X152375000Y-80840001I0J249999D01*
G01*
X152375000Y-79939999D01*
G75*
G02*
X152624999Y-79690000I249999J0D01*
G01*
X153275001Y-79690000D01*
G75*
G02*
X153525000Y-79939999I0J-249999D01*
G01*
G37*
%TD*%
%TO.C,R10*%
G36*
G01*
X156650000Y-79939999D02*
X156650000Y-80840001D01*
G75*
G02*
X156400001Y-81090000I-249999J0D01*
G01*
X155749999Y-81090000D01*
G75*
G02*
X155500000Y-80840001I0J249999D01*
G01*
X155500000Y-79939999D01*
G75*
G02*
X155749999Y-79690000I249999J0D01*
G01*
X156400001Y-79690000D01*
G75*
G02*
X156650000Y-79939999I0J-249999D01*
G01*
G37*
G36*
G01*
X158700000Y-79939999D02*
X158700000Y-80840001D01*
G75*
G02*
X158450001Y-81090000I-249999J0D01*
G01*
X157799999Y-81090000D01*
G75*
G02*
X157550000Y-80840001I0J249999D01*
G01*
X157550000Y-79939999D01*
G75*
G02*
X157799999Y-79690000I249999J0D01*
G01*
X158450001Y-79690000D01*
G75*
G02*
X158700000Y-79939999I0J-249999D01*
G01*
G37*
%TD*%
%TO.C,C1*%
G36*
G01*
X148279999Y-106170000D02*
X149180001Y-106170000D01*
G75*
G02*
X149430000Y-106419999I0J-249999D01*
G01*
X149430000Y-107070001D01*
G75*
G02*
X149180001Y-107320000I-249999J0D01*
G01*
X148279999Y-107320000D01*
G75*
G02*
X148030000Y-107070001I0J249999D01*
G01*
X148030000Y-106419999D01*
G75*
G02*
X148279999Y-106170000I249999J0D01*
G01*
G37*
G36*
G01*
X148279999Y-104120000D02*
X149180001Y-104120000D01*
G75*
G02*
X149430000Y-104369999I0J-249999D01*
G01*
X149430000Y-105020001D01*
G75*
G02*
X149180001Y-105270000I-249999J0D01*
G01*
X148279999Y-105270000D01*
G75*
G02*
X148030000Y-105020001I0J249999D01*
G01*
X148030000Y-104369999D01*
G75*
G02*
X148279999Y-104120000I249999J0D01*
G01*
G37*
%TD*%
%TO.C,C2*%
G36*
G01*
X120715000Y-102449999D02*
X120715000Y-103350001D01*
G75*
G02*
X120465001Y-103600000I-249999J0D01*
G01*
X119814999Y-103600000D01*
G75*
G02*
X119565000Y-103350001I0J249999D01*
G01*
X119565000Y-102449999D01*
G75*
G02*
X119814999Y-102200000I249999J0D01*
G01*
X120465001Y-102200000D01*
G75*
G02*
X120715000Y-102449999I0J-249999D01*
G01*
G37*
G36*
G01*
X122765000Y-102449999D02*
X122765000Y-103350001D01*
G75*
G02*
X122515001Y-103600000I-249999J0D01*
G01*
X121864999Y-103600000D01*
G75*
G02*
X121615000Y-103350001I0J249999D01*
G01*
X121615000Y-102449999D01*
G75*
G02*
X121864999Y-102200000I249999J0D01*
G01*
X122515001Y-102200000D01*
G75*
G02*
X122765000Y-102449999I0J-249999D01*
G01*
G37*
%TD*%
%TO.C,C3*%
G36*
G01*
X121570000Y-92060001D02*
X121570000Y-91159999D01*
G75*
G02*
X121819999Y-90910000I249999J0D01*
G01*
X122470001Y-90910000D01*
G75*
G02*
X122720000Y-91159999I0J-249999D01*
G01*
X122720000Y-92060001D01*
G75*
G02*
X122470001Y-92310000I-249999J0D01*
G01*
X121819999Y-92310000D01*
G75*
G02*
X121570000Y-92060001I0J249999D01*
G01*
G37*
G36*
G01*
X119520000Y-92060001D02*
X119520000Y-91159999D01*
G75*
G02*
X119769999Y-90910000I249999J0D01*
G01*
X120420001Y-90910000D01*
G75*
G02*
X120670000Y-91159999I0J-249999D01*
G01*
X120670000Y-92060001D01*
G75*
G02*
X120420001Y-92310000I-249999J0D01*
G01*
X119769999Y-92310000D01*
G75*
G02*
X119520000Y-92060001I0J249999D01*
G01*
G37*
%TD*%
M02*
